<svg width="24" height="24" viewBox="0 0 24 24" fill="none" xmlns="http://www.w3.org/2000/svg">
<path d="M11.9993 18C11.6327 18 11.3188 17.8694 11.0577 17.6083C10.7966 17.3472 10.666 17.0333 10.666 16.6667C10.666 16.3 10.7966 15.9861 11.0577 15.725C11.3188 15.4639 11.6327 15.3333 11.9993 15.3333C12.366 15.3333 12.6799 15.4639 12.941 15.725C13.2021 15.9861 13.3327 16.3 13.3327 16.6667C13.3327 17.0333 13.2021 17.3472 12.941 17.6083C12.6799 17.8694 12.366 18 11.9993 18ZM10.666 14V6H13.3327V14H10.666Z" fill="#FFCC00"/>
<rect x="0.5" y="0.5" width="23" height="23" rx="11.5" stroke="#FFCC00"/>
</svg>
