<svg width="21" height="11" viewBox="0 0 21 11" fill="none" xmlns="http://www.w3.org/2000/svg">
<path d="M9.5 10.5H5.5C4.11667 10.5 2.9375 10.0125 1.9625 9.0375C0.9875 8.0625 0.5 6.88333 0.5 5.5C0.5 4.11667 0.9875 2.9375 1.9625 1.9625C2.9375 0.9875 4.11667 0.5 5.5 0.5H9.5V2.5H5.5C4.66667 2.5 3.95833 2.79167 3.375 3.375C2.79167 3.95833 2.5 4.66667 2.5 5.5C2.5 6.33333 2.79167 7.04167 3.375 7.625C3.95833 8.20833 4.66667 8.5 5.5 8.5H9.5V10.5ZM6.5 6.5V4.5H14.5V6.5H6.5ZM11.5 10.5V8.5H15.5C16.3333 8.5 17.0417 8.20833 17.625 7.625C18.2083 7.04167 18.5 6.33333 18.5 5.5C18.5 4.66667 18.2083 3.95833 17.625 3.375C17.0417 2.79167 16.3333 2.5 15.5 2.5H11.5V0.5H15.5C16.8833 0.5 18.0625 0.9875 19.0375 1.9625C20.0125 2.9375 20.5 4.11667 20.5 5.5C20.5 6.88333 20.0125 8.0625 19.0375 9.0375C18.0625 10.0125 16.8833 10.5 15.5 10.5H11.5Z" fill="#7F7AFF"/>
</svg>
