<svg width="24" height="24" viewBox="0 0 24 24" fill="none" xmlns="http://www.w3.org/2000/svg">
<rect width="24" height="24" rx="12" fill="#E6527F"/>
<path d="M12 18.6668C10.8222 18.6668 9.86111 18.4807 9.11667 18.1085C8.37222 17.7363 8 17.2557 8 16.6668C8 16.2779 8.16111 15.9391 8.48333 15.6502C8.80556 15.3613 9.25 15.1335 9.81667 14.9668L10.2 16.2335C10.0111 16.2891 9.83889 16.3585 9.68333 16.4418C9.52778 16.5252 9.42222 16.6002 9.36667 16.6668C9.51111 16.8446 9.84444 17.0002 10.3667 17.1335C10.8889 17.2668 11.4333 17.3335 12 17.3335C12.5667 17.3335 13.1139 17.2668 13.6417 17.1335C14.1694 17.0002 14.5056 16.8446 14.65 16.6668C14.5944 16.6002 14.4889 16.5252 14.3333 16.4418C14.1778 16.3585 14.0056 16.2891 13.8167 16.2335L14.2 14.9668C14.7667 15.1335 15.2083 15.3613 15.525 15.6502C15.8417 15.9391 16 16.2779 16 16.6668C16 17.2557 15.6278 17.7363 14.8833 18.1085C14.1389 18.4807 13.1778 18.6668 12 18.6668ZM12 14.2168C12.2 13.8502 12.4111 13.5141 12.6333 13.2085C12.8556 12.9029 13.0722 12.6113 13.2833 12.3335C13.6944 11.8002 14.0222 11.3196 14.2667 10.8918C14.5111 10.4641 14.6333 9.9335 14.6333 9.30016C14.6333 8.56683 14.3778 7.94461 13.8667 7.4335C13.3556 6.92238 12.7333 6.66683 12 6.66683C11.2667 6.66683 10.6444 6.92238 10.1333 7.4335C9.62222 7.94461 9.36667 8.56683 9.36667 9.30016C9.36667 9.9335 9.48889 10.4641 9.73333 10.8918C9.97778 11.3196 10.3056 11.8002 10.7167 12.3335C10.9278 12.6113 11.1444 12.9029 11.3667 13.2085C11.5889 13.5141 11.8 13.8502 12 14.2168ZM12 16.6668C11.8778 16.6668 11.7667 16.6307 11.6667 16.5585C11.5667 16.4863 11.4944 16.3891 11.45 16.2668C11.1944 15.4779 10.8722 14.8168 10.4833 14.2835C10.0944 13.7502 9.71667 13.2391 9.35 12.7502C8.99444 12.2613 8.68611 11.7557 8.425 11.2335C8.16389 10.7113 8.03333 10.0668 8.03333 9.30016C8.03333 8.18905 8.41667 7.25016 9.18333 6.4835C9.95 5.71683 10.8889 5.3335 12 5.3335C13.1111 5.3335 14.05 5.71683 14.8167 6.4835C15.5833 7.25016 15.9667 8.18905 15.9667 9.30016C15.9667 10.0668 15.8389 10.7113 15.5833 11.2335C15.3278 11.7557 15.0167 12.2613 14.65 12.7502C14.2944 13.2391 13.9194 13.7502 13.525 14.2835C13.1306 14.8168 12.8056 15.4779 12.55 16.2668C12.5056 16.3891 12.4333 16.4863 12.3333 16.5585C12.2333 16.6307 12.1222 16.6668 12 16.6668ZM12 10.7168C12.3889 10.7168 12.7222 10.5779 13 10.3002C13.2778 10.0224 13.4167 9.68905 13.4167 9.30016C13.4167 8.91127 13.2778 8.57794 13 8.30016C12.7222 8.02239 12.3889 7.8835 12 7.8835C11.6111 7.8835 11.2778 8.02239 11 8.30016C10.7222 8.57794 10.5833 8.91127 10.5833 9.30016C10.5833 9.68905 10.7222 10.0224 11 10.3002C11.2778 10.5779 11.6111 10.7168 12 10.7168Z" fill="#EDEEF0"/>
</svg>
