<svg width="77" height="81" viewBox="0 0 77 81" fill="none" xmlns="http://www.w3.org/2000/svg">
<path d="M3.20853 41.6601C6.23626 46.2594 9.20596 50.7766 12.2781 55.4442C12.302 55.0957 12.3224 54.9214 12.3259 54.7472C12.3259 51.7334 12.3361 48.7196 12.3122 45.7058C12.3122 45.3743 12.1893 44.9985 12.0084 44.7183C10.3358 42.1316 8.64274 39.5586 6.9326 36.9959C6.68001 36.6166 6.67318 36.3603 6.9326 35.9844C7.94981 34.4844 8.93289 32.9604 9.99106 31.3476C15.2717 39.3741 20.5011 47.322 25.8397 55.4374C25.8636 55.041 25.8875 54.8224 25.8909 54.6037C25.8943 51.6138 25.9046 48.6239 25.8875 45.634C25.8875 45.347 25.7851 45.019 25.6281 44.7764C21.6753 38.7454 17.7123 32.7178 13.7288 26.7073C13.4762 26.328 13.4489 26.0751 13.7015 25.6993C14.7187 24.1958 15.7052 22.6752 16.777 21.0453C24.3037 32.482 31.7962 43.8709 39.3979 55.4272C39.4218 55.024 39.4423 54.8224 39.4423 54.6208C39.4423 51.6309 39.456 48.641 39.4286 45.6511C39.4286 45.2992 39.2989 44.896 39.1044 44.6021C32.9294 35.1746 26.7374 25.7539 20.5352 16.3435C20.2655 15.9369 20.2724 15.6669 20.5386 15.2774C21.5865 13.7466 22.6003 12.1953 23.6858 10.5551C38.92 33.8146 54.0962 56.9921 69.3373 80.2653C69.0096 80.2824 68.7843 80.3064 68.559 80.3064C55.7996 80.3064 43.0367 80.3508 30.2772 80.2893C24.7576 80.2619 20.344 77.8666 17.2788 73.2776C11.5612 64.7214 5.95294 56.0901 0.276375 47.5066C-0.0820369 46.9667 -0.0888639 46.6079 0.283202 46.0783C1.28334 44.6568 2.2118 43.1841 3.21536 41.6635L3.20853 41.6601Z" fill="#242529"/>
<path d="M76.7581 40.0541C76.4407 40.0712 76.2052 40.0917 75.9731 40.0917C72.3411 40.0917 68.7092 40.0848 65.0739 40.1019C64.5926 40.1019 64.3025 39.9687 64.0328 39.5518C62.5104 37.1804 60.93 34.8466 59.4178 32.4683C59.0492 31.8874 58.6464 31.7063 57.9739 31.7132C55.8235 31.7337 53.6627 31.7986 51.5259 31.6209C46.4808 31.1972 42.5212 28.7951 39.7154 24.5887C35.6227 18.4484 31.6016 12.2602 27.5225 6.10959C27.1436 5.53895 27.1505 5.15625 27.5772 4.63345C30.0109 1.65382 33.1342 0.0478346 36.9641 0.0273326C45.805 -0.0205054 54.6492 0.0102476 63.4935 0.0136646C63.6573 0.0136646 63.8212 0.0307496 64.0977 0.0444176C63.2955 1.28479 62.5377 2.45682 61.7765 3.62885C61.2406 4.44893 60.7218 5.28268 60.1551 6.07884C59.9059 6.42737 59.9059 6.66656 60.1415 7.02535C64.4595 13.5621 68.7638 20.109 73.0682 26.656C74.2117 28.3919 75.3552 30.1277 76.4851 31.8704C76.6216 32.0788 76.7513 32.3419 76.7513 32.5845C76.7718 35.0482 76.7616 37.5118 76.7616 40.0609L76.7581 40.0541Z" fill="#242529"/>
</svg>
