<svg width="16" height="24" viewBox="0 0 16 24" fill="none" xmlns="http://www.w3.org/2000/svg">
<path d="M8.00033 18C7.63366 18 7.31977 17.8694 7.05866 17.6083C6.79755 17.3472 6.66699 17.0333 6.66699 16.6667C6.66699 16.3 6.79755 15.9861 7.05866 15.725C7.31977 15.4639 7.63366 15.3333 8.00033 15.3333C8.36699 15.3333 8.68088 15.4639 8.94199 15.725C9.2031 15.9861 9.33366 16.3 9.33366 16.6667C9.33366 17.0333 9.2031 17.3472 8.94199 17.6083C8.68088 17.8694 8.36699 18 8.00033 18ZM6.66699 14V6H9.33366V14H6.66699Z" fill="#FFCC00"/>
<rect x="0.5" y="0.5" width="15" height="23" rx="7.5" stroke="#FFCC00"/>
</svg>
