<svg width="24" height="24" viewBox="0 0 24 24" fill="none" xmlns="http://www.w3.org/2000/svg">
<path d="M15.3947 17L14.6447 16.25L15.4868 15.4211H13.2895V14.3684H15.4868L14.6579 13.5263L15.3947 12.7895L17.5 14.8947L15.3947 17ZM8.55263 16.4737C8.26316 16.4737 8.01535 16.3706 7.80921 16.1645C7.60307 15.9583 7.5 15.7105 7.5 15.4211V13.3158H8.55263V15.4211H10.6579V16.4737H8.55263ZM7.5 10.1579V8.05263C7.5 7.76316 7.60307 7.51535 7.80921 7.30921C8.01535 7.10307 8.26316 7 8.55263 7H10.6579V8.05263H8.55263V10.1579H7.5ZM15.9211 10.1579V8.05263H13.8158V7H15.9211C16.2105 7 16.4583 7.10307 16.6645 7.30921C16.8706 7.51535 16.9737 7.76316 16.9737 8.05263V10.1579H15.9211Z" fill="#7F7AFF"/>
<rect x="0.5" y="0.5" width="23" height="23" rx="11.5" stroke="#7F7AFF"/>
</svg>
