<svg width="163" height="24" viewBox="0 0 163 24" fill="none" xmlns="http://www.w3.org/2000/svg">
<g clip-path="url(#clip0_706_3907)">
<path d="M0.961817 12.448C1.86864 13.8217 2.75944 15.1726 3.68001 16.5669C3.68688 16.464 3.69375 16.4114 3.69375 16.3589C3.69375 15.4583 3.69604 14.5577 3.68917 13.6572C3.68917 13.5589 3.65253 13.4446 3.59757 13.3623C3.09607 12.5897 2.58998 11.8194 2.07703 11.056C2.00146 10.9417 1.99917 10.8663 2.07703 10.7543C2.3816 10.3063 2.677 9.85145 2.99302 9.36916C4.57539 11.7669 6.14173 14.144 7.74242 16.5669C7.74929 16.448 7.75616 16.3817 7.75845 16.3177C7.75845 15.424 7.76303 14.5303 7.75845 13.6366C7.75845 13.5497 7.72868 13.4514 7.68059 13.3806C6.49667 11.5794 5.30818 9.7783 4.1151 7.98173C4.03954 7.86745 4.03038 7.79202 4.10594 7.68002C4.41051 7.22973 4.70592 6.77487 5.0288 6.2903C7.28442 9.70745 9.52859 13.1109 11.8071 16.5646C11.814 16.4434 11.8209 16.384 11.8209 16.3246C11.8209 15.4309 11.8254 14.5372 11.8163 13.6434C11.8163 13.5383 11.7773 13.4172 11.7201 13.3303C9.8698 10.512 8.01492 7.6983 6.15547 4.88687C6.07532 4.76573 6.07761 4.68345 6.15547 4.56916C6.46919 4.11202 6.77376 3.64802 7.09893 3.15887C11.6628 10.1097 16.213 17.0354 20.7792 23.9886C20.6807 23.9932 20.6143 24 20.5456 24C16.7214 24 12.8971 24.0137 9.07289 23.9954C7.41724 23.9886 6.09593 23.2709 5.17765 21.9017C3.46246 19.3394 1.78163 16.7589 0.0801786 14.1943C-0.02745 14.032 -0.0297399 13.9246 0.0801786 13.7669C0.380165 13.3417 0.657251 12.9029 0.959527 12.448H0.961817Z" fill="#EDEEF0"/>
<path d="M23.0028 11.968C22.9066 11.9725 22.8379 11.9794 22.7669 11.9794C21.6792 11.9794 20.5891 11.9794 19.5014 11.9817C19.3571 11.9817 19.2701 11.9428 19.19 11.8171C18.7343 11.1085 18.2602 10.4114 17.8068 9.70054C17.6969 9.52682 17.5755 9.47197 17.374 9.47425C16.7305 9.48111 16.0825 9.4994 15.4413 9.44682C13.9299 9.32111 12.7414 8.6034 11.9033 7.34625C10.6781 5.51082 9.47133 3.66168 8.24849 1.82397C8.13399 1.65254 8.13628 1.53825 8.26452 1.38282C8.99273 0.493682 9.92932 0.0136816 11.0766 0.00682443C13.7261 -0.00688986 16.3756 0.002253 19.0274 0.002253C19.0755 0.002253 19.1258 0.00682443 19.2083 0.0113959C18.9678 0.381682 18.7411 0.731396 18.5121 1.08111C18.3518 1.32568 18.1961 1.57482 18.0267 1.81254C17.9534 1.9154 17.9511 1.98854 18.0221 2.09597C19.3159 4.05025 20.6052 6.00682 21.8967 7.96111C22.2379 8.47997 22.5814 8.99882 22.9203 9.51997C22.9615 9.58168 23.0005 9.66168 23.0005 9.73254C23.0073 10.4685 23.005 11.2045 23.005 11.9657L23.0028 11.968Z" fill="#EDEEF0"/>
<path d="M44.3109 20.8343H32.1466V2.43884H36.1747V17.0514H44.3109V20.8366V20.8343Z" fill="#EDEEF0"/>
<path d="M49.4702 5.72342H45.6002V2.30627H49.4702V5.72342ZM49.4427 20.8343H45.6253V7.4057H49.4427V20.8343Z" fill="#EDEEF0"/>
<path d="M59.6606 10.7177H56.7913V16.4732C56.7913 16.8594 56.8577 17.1314 56.9882 17.2869C57.121 17.4446 57.3615 17.5246 57.7118 17.5246H59.6606V20.8366H56.7111C55.376 20.8366 54.4211 20.5349 53.8418 19.9292C53.2624 19.3257 52.9739 18.3132 52.9739 16.8937V10.7177H50.7366V7.40573H52.9739V3.35773H56.7913V7.40573H59.6606V10.7177Z" fill="#EDEEF0"/>
<path d="M69.48 10.7177H66.6106V16.4732C66.6106 16.8594 66.6771 17.1314 66.8076 17.2869C66.9404 17.4446 67.1808 17.5246 67.5312 17.5246H69.48V20.8366H66.5305C65.1954 20.8366 64.2405 20.5349 63.6612 19.9292C63.0818 19.3257 62.7933 18.3132 62.7933 16.8937V10.7177H60.556V7.40573H62.7933V3.35773H66.6106V7.40573H69.48V10.7177Z" fill="#EDEEF0"/>
<path d="M75.1935 20.8343H71.3761V2.43884H75.1935V20.8366V20.8343Z" fill="#EDEEF0"/>
<path d="M86.5677 7.91772C87.5158 8.50515 88.2577 9.31886 88.7913 10.3611C89.3271 11.4034 89.5951 12.5829 89.5951 13.8949C89.5951 14.3863 89.5767 14.7543 89.5424 14.9989H80.7489C80.8543 15.9451 81.1359 16.6766 81.5916 17.1931C82.0473 17.7097 82.661 17.968 83.435 17.968C84.0671 17.968 84.58 17.8103 84.9762 17.4949C85.3724 17.1794 85.6128 16.8023 85.6998 16.3657H89.4645C89.3409 17.2777 89.0088 18.1006 88.4638 18.8366C87.9188 19.5726 87.2043 20.1509 86.3181 20.5714C85.4319 20.992 84.4174 21.2023 83.277 21.2023C82.0313 21.2023 80.9252 20.9051 79.9589 20.3086C78.9925 19.7143 78.2437 18.8754 77.7078 17.7989C77.172 16.7223 76.9041 15.4903 76.9041 14.1074C76.9041 12.7246 77.1766 11.5451 77.7193 10.4686C78.2643 9.39201 79.0223 8.55086 79.9978 7.94515C80.971 7.34172 82.0725 7.03772 83.3022 7.03772C84.5319 7.03772 85.6197 7.33029 86.5677 7.91772ZM81.7107 10.8617C81.2802 11.2731 80.9871 11.856 80.8291 12.6103H85.9105C85.7525 11.8583 85.4548 11.2754 85.0151 10.8617C84.5755 10.4503 84.0236 10.2446 83.3572 10.2446C82.6908 10.2446 82.1412 10.4503 81.7107 10.8617Z" fill="#EDEEF0"/>
<path d="M108.79 9.58627V2.43884H112.845V20.8366H108.79V13.3737H101.26V20.8366H97.2321V2.43884H101.26V9.58627H108.79Z" fill="#EDEEF0"/>
<path d="M117.899 20.2971C116.898 19.6937 116.117 18.8526 115.556 17.7737C114.995 16.6971 114.714 15.4743 114.714 14.1074C114.714 12.7406 114.993 11.5223 115.556 10.4549C116.117 9.38743 116.894 8.54858 117.888 7.94515C118.879 7.34172 120.015 7.03772 121.297 7.03772C122.58 7.03772 123.688 7.33943 124.682 7.94515C125.674 8.54858 126.45 9.38743 127.011 10.4549C127.572 11.5246 127.854 12.7406 127.854 14.1074C127.854 15.4743 127.572 16.6971 127.011 17.7737C126.45 18.8503 125.671 19.6914 124.682 20.2971C123.69 20.9006 122.561 21.2046 121.297 21.2046C120.033 21.2046 118.902 20.9029 117.901 20.2971H117.899ZM123.166 16.7109C123.622 16.064 123.851 15.1954 123.851 14.1097C123.851 13.024 123.622 12.1554 123.166 11.5086C122.71 10.8617 122.087 10.5371 121.297 10.5371C120.507 10.5371 119.885 10.8617 119.429 11.5086C118.973 12.1577 118.744 13.024 118.744 14.1097C118.744 15.1954 118.973 16.064 119.429 16.7109C119.885 17.36 120.507 17.6823 121.297 17.6823C122.087 17.6823 122.71 17.3577 123.166 16.7109Z" fill="#EDEEF0"/>
<path d="M129.484 20.8343V7.40574H133.301V9.50859H133.54C133.732 8.70174 134.066 8.12802 134.54 7.78745C135.014 7.44459 135.715 7.27545 136.647 7.27545H137.041V11.0606H135.355C133.986 11.0606 133.301 11.9543 133.301 13.7417V20.8366H129.484V20.8343Z" fill="#EDEEF0"/>
<path d="M140.357 20.56C139.48 20.1303 138.811 19.5474 138.355 18.8114C137.9 18.0754 137.662 17.2526 137.646 16.3406H141.463C141.516 16.832 141.712 17.2114 142.056 17.4834C142.397 17.7554 142.885 17.8903 143.517 17.8903C144.57 17.8903 145.097 17.5063 145.097 16.7337C145.097 16.3314 144.934 16.0297 144.609 15.8263C144.284 15.6251 143.709 15.472 142.885 15.3669C141.165 15.1223 139.931 14.688 139.184 14.0663C138.438 13.4446 138.065 12.5211 138.065 11.2937C138.065 9.97943 138.559 8.94172 139.553 8.18058C140.545 7.41943 141.838 7.03772 143.437 7.03772C144.49 7.03772 145.434 7.23886 146.267 7.64115C147.101 8.04343 147.763 8.60115 148.255 9.30972C148.747 10.0183 149.008 10.8046 149.045 11.6617H145.2C145.163 11.2594 144.985 10.9394 144.66 10.7017C144.335 10.464 143.883 10.3474 143.304 10.3474C142.864 10.3474 142.523 10.4297 142.278 10.5966C142.033 10.7634 141.909 11.0126 141.909 11.3463C141.909 11.7486 142.097 12.0526 142.475 12.2537C142.853 12.4549 143.515 12.608 144.463 12.7131C146.059 12.8891 147.222 13.3006 147.95 13.9474C148.679 14.5966 149.043 15.5337 149.043 16.7589C149.043 18.1783 148.525 19.2731 147.49 20.0434C146.455 20.8137 145.102 21.2 143.435 21.2C142.257 21.2 141.232 20.9851 140.355 20.5554L140.357 20.56Z" fill="#EDEEF0"/>
<path d="M159.973 7.91772C160.921 8.50515 161.663 9.31886 162.196 10.3611C162.732 11.4034 163 12.5829 163 13.8949C163 14.3863 162.982 14.7543 162.947 14.9989H154.154C154.259 15.9451 154.539 16.6766 154.997 17.1931C155.452 17.7097 156.066 17.968 156.84 17.968C157.472 17.968 157.985 17.8103 158.381 17.4949C158.777 17.1794 159.018 16.8023 159.105 16.3657H162.869C162.746 17.2777 162.414 18.1006 161.869 18.8366C161.324 19.5726 160.609 20.1509 159.723 20.5714C158.837 20.992 157.822 21.2023 156.682 21.2023C155.436 21.2023 154.33 20.9051 153.364 20.3086C152.397 19.7143 151.649 18.8754 151.113 17.7989C150.577 16.7223 150.309 15.4903 150.309 14.1074C150.309 12.7246 150.582 11.5451 151.124 10.4686C151.669 9.39201 152.427 8.55086 153.403 7.94515C154.376 7.34172 155.477 7.03772 156.707 7.03772C157.937 7.03772 159.025 7.33029 159.973 7.91772ZM155.116 10.8617C154.685 11.2731 154.392 11.856 154.234 12.6103H159.315C159.157 11.8583 158.86 11.2754 158.42 10.8617C157.98 10.4503 157.429 10.2446 156.762 10.2446C156.096 10.2446 155.546 10.4503 155.116 10.8617Z" fill="#EDEEF0"/>
</g>
<defs>
<clipPath id="clip0_706_3907">
<rect width="163" height="24" fill="white"/>
</clipPath>
</defs>
</svg>
