<svg width="218" height="81" viewBox="0 0 218 81" fill="none" xmlns="http://www.w3.org/2000/svg">
<path d="M3.20853 41.6601C6.23626 46.2594 9.20596 50.7766 12.2781 55.4442C12.302 55.0957 12.3224 54.9214 12.3259 54.7472C12.3259 51.7334 12.3361 48.7196 12.3122 45.7058C12.3122 45.3743 12.1893 44.9985 12.0084 44.7183C10.3358 42.1316 8.64274 39.5586 6.9326 36.9959C6.68001 36.6166 6.67318 36.3603 6.9326 35.9844C7.94981 34.4844 8.93289 32.9604 9.99106 31.3476C15.2717 39.3741 20.5011 47.322 25.8397 55.4374C25.8636 55.041 25.8875 54.8224 25.8909 54.6037C25.8943 51.6138 25.9046 48.6239 25.8875 45.634C25.8875 45.347 25.7851 45.019 25.6281 44.7764C21.6753 38.7454 17.7123 32.7178 13.7288 26.7073C13.4762 26.328 13.4489 26.0751 13.7015 25.6993C14.7187 24.1958 15.7052 22.6752 16.777 21.0453C24.3037 32.482 31.7962 43.8709 39.3979 55.4272C39.4218 55.024 39.4423 54.8224 39.4423 54.6208C39.4423 51.6309 39.456 48.641 39.4287 45.6511C39.4287 45.2992 39.2989 44.896 39.1044 44.6021C32.9294 35.1746 26.7374 25.7539 20.5352 16.3435C20.2655 15.9369 20.2724 15.6669 20.5386 15.2774C21.5865 13.7466 22.6003 12.1953 23.6858 10.5551C38.92 33.8146 54.0962 56.9921 69.3373 80.2653C69.0096 80.2824 68.7843 80.3063 68.559 80.3063C55.7996 80.3063 43.0367 80.3508 30.2772 80.2893C24.7576 80.2619 20.344 77.8666 17.2788 73.2776C11.5612 64.7214 5.95294 56.0901 0.276375 47.5066C-0.082037 46.9667 -0.0888639 46.6079 0.283202 46.0783C1.28334 44.6568 2.2118 43.1841 3.21536 41.6635L3.20853 41.6601Z" fill="#EDEEF0"/>
<path d="M76.7581 40.0541C76.4407 40.0712 76.2052 40.0917 75.9731 40.0917C72.3411 40.0917 68.7092 40.0848 65.0739 40.1019C64.5926 40.1019 64.3025 39.9687 64.0328 39.5518C62.5104 37.1804 60.93 34.8466 59.4178 32.4683C59.0492 31.8874 58.6464 31.7063 57.9739 31.7132C55.8235 31.7337 53.6627 31.7986 51.5259 31.6209C46.4808 31.1972 42.5212 28.7951 39.7154 24.5887C35.6227 18.4484 31.6016 12.2602 27.5225 6.10959C27.1436 5.53895 27.1505 5.15625 27.5772 4.63345C30.0109 1.65382 33.1342 0.0478346 36.9641 0.0273326C45.805 -0.0205054 54.6492 0.0102476 63.4935 0.0136646C63.6573 0.0136646 63.8212 0.0307496 64.0977 0.0444176C63.2955 1.28479 62.5377 2.45682 61.7765 3.62885C61.2406 4.44893 60.7218 5.28268 60.1551 6.07884C59.9059 6.42737 59.9059 6.66656 60.1415 7.02535C64.4595 13.5621 68.7638 20.109 73.0682 26.656C74.2117 28.3919 75.3552 30.1277 76.4851 31.8704C76.6216 32.0788 76.7513 32.3419 76.7513 32.5845C76.7718 35.0482 76.7616 37.5118 76.7616 40.0609L76.7581 40.0541Z" fill="#EDEEF0"/>
<path d="M117.365 37.112H94.5286V2.47389H102.093V29.9842H117.368V37.1086L117.365 37.112Z" fill="#EDEEF0"/>
<path d="M127.052 8.65867H119.785V2.22787H127.052V8.65867ZM127.001 37.1086H119.832V11.8262H127.001V37.112V37.1086Z" fill="#EDEEF0"/>
<path d="M146.181 18.0623H140.795V28.8976C140.795 29.622 140.917 30.1345 141.167 30.4318C141.412 30.7291 141.866 30.876 142.525 30.876H146.184V37.112H140.648C138.142 37.112 136.347 36.5414 135.261 35.4035C134.172 34.2657 133.63 32.359 133.63 29.6869V18.0588H129.428V11.8228H133.63V4.20631H140.798V11.8262H146.184V18.0623H146.181Z" fill="#EDEEF0"/>
<path d="M164.617 18.0623H159.231V28.8976C159.231 29.622 159.353 30.1345 159.603 30.4318C159.852 30.7291 160.302 30.876 160.961 30.876H164.617V37.112H159.08C156.575 37.112 154.779 36.5414 153.691 35.4035C152.602 34.2657 152.059 32.359 152.059 29.6869V18.0588H147.857V11.8228H152.059V4.20631H159.227V11.8262H164.614V18.0623H164.617Z" fill="#EDEEF0"/>
<path d="M175.342 37.112H168.174V2.47389H175.342V37.1086V37.112Z" fill="#EDEEF0"/>
<path d="M196.693 12.7898C198.471 13.8969 199.864 15.4278 200.871 17.3925C201.875 19.3539 202.38 21.5749 202.38 24.0488C202.38 24.9714 202.346 25.6651 202.281 26.1264H185.77C185.968 27.9066 186.494 29.2871 187.35 30.2575C188.207 31.2314 189.361 31.7166 190.812 31.7166C192 31.7166 192.962 31.4193 193.703 30.8248C194.444 30.2302 194.898 29.5229 195.061 28.696H202.131C201.899 30.4113 201.274 31.9626 200.253 33.3465C199.233 34.7304 197.888 35.8204 196.225 36.6132C194.56 37.4059 192.658 37.8023 190.518 37.8023C188.176 37.8023 186.101 37.2419 184.289 36.1211C182.476 35.0003 181.066 33.4251 180.063 31.3954C179.056 29.3657 178.554 27.049 178.554 24.4418C178.554 21.8346 179.066 19.617 180.087 17.5873C181.107 15.5576 182.534 13.9755 184.364 12.8377C186.193 11.6998 188.258 11.1292 190.566 11.1292C192.873 11.1292 194.915 11.6827 196.696 12.7864L196.693 12.7898ZM187.572 18.3322C186.763 19.1079 186.214 20.2047 185.917 21.6228H195.457C195.16 20.2047 194.601 19.1079 193.778 18.3322C192.955 17.5565 191.914 17.1704 190.665 17.1704C189.416 17.1704 188.381 17.56 187.576 18.3322H187.572Z" fill="#EDEEF0"/>
<path d="M116.228 59.1278V45.6682H123.84V80.3029H116.228V66.2522H102.093V80.3029H94.5286V45.6682H102.093V59.1278H116.228Z" fill="#EDEEF0"/>
<path d="M133.329 79.2915C131.452 78.1536 129.984 76.5716 128.929 74.5419C127.875 72.5122 127.349 70.2125 127.349 67.6395C127.349 65.0665 127.875 62.7737 128.929 60.7611C129.984 58.7485 131.442 57.1733 133.305 56.0354C135.166 54.8975 137.299 54.3269 139.706 54.3269C142.112 54.3269 144.194 54.8975 146.058 56.0354C147.918 57.1733 149.376 58.7485 150.434 60.7611C151.489 62.7737 152.014 65.0665 152.014 67.6395C152.014 70.2125 151.485 72.5122 150.434 74.5419C149.379 76.5716 147.922 78.1536 146.058 79.2915C144.194 80.4294 142.078 81 139.706 81C137.333 81 135.207 80.4294 133.329 79.2915ZM143.215 72.5361C144.071 71.3162 144.498 69.6829 144.498 67.6361C144.498 65.5893 144.068 63.9594 143.215 62.7361C142.358 61.5163 141.187 60.9046 139.706 60.9046C138.224 60.9046 137.053 61.5163 136.197 62.7361C135.34 63.956 134.91 65.5893 134.91 67.6361C134.91 69.6829 135.336 71.3162 136.197 72.5361C137.053 73.756 138.224 74.3676 139.706 74.3676C141.187 74.3676 142.358 73.756 143.215 72.5361Z" fill="#EDEEF0"/>
<path d="M155.076 80.3064V55.0205H162.245V58.9774H162.688C163.05 57.4603 163.678 56.3805 164.566 55.7381C165.457 55.0957 166.774 54.7745 168.519 54.7745H169.259V61.899H166.095C163.525 61.899 162.241 63.5801 162.241 66.9459V80.3064H155.073H155.076Z" fill="#EDEEF0"/>
<path d="M175.489 79.787C173.84 78.9805 172.587 77.8803 171.731 76.4964C170.874 75.1125 170.43 73.5612 170.396 71.8458H177.564C177.663 72.7684 178.035 73.486 178.677 73.9986C179.319 74.5111 180.234 74.7674 181.421 74.7674C183.398 74.7674 184.388 74.043 184.388 72.5908C184.388 71.8322 184.084 71.265 183.473 70.8823C182.862 70.503 181.783 70.2159 180.237 70.0178C177.008 69.5565 174.694 68.7398 173.291 67.5678C171.891 66.3957 171.191 64.6565 171.191 62.3466C171.191 59.8727 172.123 57.9182 173.984 56.483C175.844 55.0479 178.274 54.3303 181.275 54.3303C183.251 54.3303 185.023 54.7096 186.589 55.4682C188.153 56.2267 189.399 57.2758 190.32 58.6084C191.242 59.9444 191.737 61.4206 191.802 63.0368H184.586C184.521 62.2782 184.183 61.6769 183.572 61.2292C182.961 60.785 182.114 60.5629 181.025 60.5629C180.203 60.5629 179.558 60.7201 179.097 61.0345C178.636 61.3488 178.404 61.817 178.404 62.4457C178.404 63.2043 178.759 63.7749 179.466 64.1542C180.176 64.5335 181.418 64.8239 183.196 65.0187C186.193 65.3501 188.378 66.1258 189.747 67.3457C191.112 68.5655 191.798 70.3321 191.798 72.6386C191.798 75.3107 190.825 77.3711 188.883 78.8234C186.938 80.2756 184.401 81 181.271 81C179.063 81 177.134 80.5968 175.489 79.787Z" fill="#EDEEF0"/>
<path d="M212.313 55.9876C214.092 57.0947 215.484 58.6255 216.491 60.5903C217.495 62.555 218 64.7727 218 67.2466C218 68.1692 217.966 68.8628 217.901 69.3241H201.39C201.588 71.1044 202.114 72.4814 202.971 73.4553C203.827 74.4291 204.981 74.9143 206.432 74.9143C207.62 74.9143 208.582 74.6171 209.323 74.0225C210.064 73.4279 210.518 72.7206 210.682 71.8937H217.751C217.519 73.609 216.894 75.1604 215.873 76.5442C214.853 77.9281 213.508 79.0182 211.846 79.8109C210.18 80.6036 208.278 81 206.138 81C203.797 81 201.721 80.4396 199.909 79.3188C198.096 78.1981 196.686 76.6228 195.683 74.5931C194.676 72.5634 194.174 70.2467 194.174 67.6395C194.174 65.0324 194.686 62.8147 195.707 60.785C196.727 58.7553 198.154 57.1733 199.984 56.0354C201.813 54.8975 203.879 54.3269 206.186 54.3269C208.493 54.3269 210.535 54.8805 212.317 55.9841L212.313 55.9876ZM203.192 61.5299C202.383 62.3056 201.834 63.4025 201.537 64.8205H211.077C210.781 63.4025 210.221 62.3056 209.398 61.5299C208.575 60.7543 207.534 60.3682 206.285 60.3682C205.036 60.3682 204.001 60.7577 203.196 61.5299H203.192Z" fill="#EDEEF0"/>
</svg>
