<svg width="16" height="20" viewBox="0 0 16 20" fill="none" xmlns="http://www.w3.org/2000/svg">
<path id="replay" d="M8 19.2C6.88889 19.2 5.84815 18.992 4.87778 18.5758C3.90741 18.1596 3.06296 17.5974 2.34444 16.8891C1.62593 16.1808 1.05556 15.3485 0.633333 14.392C0.211111 13.4354 0 12.4096 0 11.3143H1.77778C1.77778 13.0229 2.38148 14.4723 3.58889 15.6624C4.7963 16.8526 6.26667 17.4477 8 17.4477C9.73333 17.4477 11.2037 16.8526 12.4111 15.6624C13.6185 14.4723 14.2222 13.0229 14.2222 11.3143C14.2222 9.60576 13.6185 8.1564 12.4111 6.96624C11.2037 5.77608 9.73333 5.181 8 5.181H7.86667L9.24444 6.5391L8 7.80957L4.44444 4.30481L8 0.800049L9.24444 2.07053L7.86667 3.42862H8C9.11111 3.42862 10.1519 3.63672 11.1222 4.05291C12.0926 4.4691 12.937 5.03132 13.6556 5.73957C14.3741 6.44783 14.9444 7.28021 15.3667 8.23672C15.7889 9.19322 16 10.2191 16 11.3143C16 12.4096 15.7889 13.4354 15.3667 14.392C14.9444 15.3485 14.3741 16.1808 13.6556 16.8891C12.937 17.5974 12.0926 18.1596 11.1222 18.5758C10.1519 18.992 9.11111 19.2 8 19.2Z" fill="#A6ECA4"/>
</svg>
