<svg width="24" height="24" viewBox="0 0 24 24" fill="none" xmlns="http://www.w3.org/2000/svg">
<path d="M12.06 18C11.22 18 10.4325 17.84 9.6975 17.52C8.9625 17.2 8.3225 16.7675 7.7775 16.2225C7.2325 15.6775 6.8 15.0375 6.48 14.3025C6.16 13.5675 6 12.78 6 11.94C6 10.48 6.465 9.1925 7.395 8.0775C8.325 6.9625 9.51 6.27 10.95 6C10.77 6.99 10.825 7.9575 11.115 8.9025C11.405 9.8475 11.905 10.675 12.615 11.385C13.325 12.095 14.1525 12.595 15.0975 12.885C16.0425 13.175 17.01 13.23 18 13.05C17.74 14.49 17.05 15.675 15.93 16.605C14.81 17.535 13.52 18 12.06 18Z" fill="#7F7AFF"/>
<rect x="0.5" y="0.5" width="23" height="23" rx="11.5" stroke="#7F7AFF"/>
</svg>
