<?xml version="1.0" encoding="UTF-8"?>
<svg width="1200pt" height="1200pt" version="1.1" viewBox="0 0 1200 1200" xmlns="http://www.w3.org/2000/svg">
 <path d="m1125.6 366.84-75.133-23.797c-0.046876-4.8945-0.097657-8.6992-0.097657-8.6992l-0.79297 0.011719c0.17969-0.80469 0.33594-1.6094 0.32422-2.4492-0.26562-23.258-75.348-23.93-83.914-23.93l-3.7188 0.023438c-4.6094 0.046875-9.707 0.22656-15 0.52734l-90.48-23.051c-0.046875-4.1523-0.070312-7.3086-0.070312-7.3086l-0.99609 0.011719c0.17969-0.76953 0.39453-1.5352 0.39453-2.3516-0.23828-22.453-72.457-23.113-80.688-23.113l-3.6719 0.023437c-21.395 0.23828-41.555 2.4375-56.746 6.1797-18.312 4.5117-27.168 10.645-27.07 18.73 0 0.22656 0.12109 0.42187 0.14453 0.64844l-0.81641 0.011719 0.14453 14.762-13.754 5.5938c-18.336-5.9141-44.914-7.8828-63.719-7.8828l-3.6953 0.023438c-30.422 0.32422-87.898 6.4688-87.684 27.406 0 0.25391 0.10937 0.48047 0.13281 0.73047l-0.67188 0.011719 0.20312 19.055-23.977 7.0078c-18.973-4.9453-43.703-6.6602-61.715-6.6602l-3.625 0.023437c-41.988 0.45703-77.543 8.3047-88.5 19.512-3.5742 3.6602-4.2969 7.2344-4.2617 9.5898 0 0.28906 0.12109 0.53906 0.14453 0.81641h-0.50391l0.28906 26.207-19.066 5.4609c-19.441-7.1406-49.754-9.457-70.824-9.457l-3.6602 0.023438c-41.977 0.45703-77.543 8.293-88.5 19.512-3.5742 3.6602-4.2969 7.2344-4.2617 9.5898 0 0.27734 0.12109 0.52734 0.14453 0.80469h-0.50391l0.30078 28.129-74.398 24.648c-8.7852 2.9023-14.723 11.125-14.723 20.375v268.75c0 8.3984 4.8945 16.02 12.516 19.512l329.14 150.98c2.832 1.2969 5.8906 1.957 8.9531 1.957 2.6641 0 5.3281-0.49219 7.8594-1.4883l707.93-278.5c8.207-3.2266 13.609-11.16 13.609-19.98l-0.011719-247.52c0.023438-9.3594-6.0469-17.641-14.977-20.473zm-713.93 248.82-287.29-113.48 38.914-12.887c1.3438 1.1172 2.6875 2.2422 4.3203 3.1797 8.3516 4.8125 38.074 15.961 75.66 15.961 23.051 0 49.066-4.1992 74.914-16.633 1.4883-0.73047 3.2148-1.8828 4.9805-3.3359l0.42188 38.734c0.011718 0.9375 0.44531 23.051 18.324 33.348 11.281 6.5039 41.688 16.273 78.359 16.273 24.48 0 51.77-4.3555 78.012-16.98 0.78125-0.38281 19.152-9.6836 18.887-35.426-0.023438-1.6211-0.40625-38.484-0.40625-38.484l-0.55078 0.011719c0.25391-0.97266 0.45703-1.9453 0.44531-2.9648-0.17969-18.133-39.445-25.344-72.551-27.359 19.234-1.4883 39.887-6.0234 60.48-15.926 4.043-1.9805 9.6602-6.6602 13.621-14.09-0.058593 0.46875-0.21484 0.92578-0.20312 1.4023 0 0.27734 0.12109 0.51562 0.14453 0.78125h-0.44531l0.43359 40.152c0.011719 0.92578 0.44531 22.559 17.93 32.617 10.969 6.3359 40.559 15.875 76.273 15.875 23.82 0 50.363-4.2461 75.91-16.523 6.9727-3.4219 18.719-14.566 18.504-34.668-0.023437-1.3086-0.28906-26.258-0.37109-34.633 2.4844 5.8203 6.6484 12 13.98 16.164 8.1836 4.6328 37.32 15.395 74.16 15.395 22.609 0 48.109-4.043 73.441-16.055 6.8281-3.3008 18.336-14.062 18.133-33.492-0.011718-0.79297-0.12109-10.598-0.21484-19.738 1.8359 1.6914 3.8633 3.2891 6.3125 4.5859 10.141 5.3516 37.402 13.391 70.344 13.391 22.066 0 46.691-3.6133 70.391-14.062 3.4922-1.5586 8.1953-5.0273 11.902-10.477l32.27 10.223zm620.66-249.38c0.10938 9.8984-6.3711 13.43-6.8984 13.703-56.41 24.91-116.03 5.7852-124.68 1.2109-7.0195-3.6953-7.3672-12.648-7.3789-12.949l-0.20312-18.539c22.801 7.6914 59.867 8.0156 65.711 8.0156l3.9102-0.023438c22.285-0.22656 43.262-2.5195 59.09-6.4336 3.8516-0.94922 7.1875-1.9922 10.234-3.0859 0.10547 8.3086 0.20312 17.418 0.21484 18.102zm-164.65 46.605c0.13281 12.07-7.0938 16.309-7.6797 16.645-58.98 27.961-121.55 6.3711-130.59 1.2461-7.8594-4.4648-8.2578-15.719-8.2578-15.758l-0.22656-21.863c18.984 7.043 48.828 9.3242 69.551 9.3242l3.8867-0.023437c23.363-0.23828 45.348-2.8086 61.934-7.2109 4.1992-1.1172 7.8477-2.3398 11.137-3.6367 0.12109 9.5781 0.23047 20.473 0.24219 21.277zm-179.33 52.621c0.14453 12.961-7.5117 17.508-8.1602 17.867-61.055 29.328-125.62 6.6484-134.96 1.2617-8.3164-4.7891-8.7109-16.836-8.7109-16.883l-0.25391-23.258c19.57 7.4531 50.699 9.875 72.266 9.875l3.8398-0.023438c28.117-0.30078 57.516-4.043 75.73-11.496 0.10938 10.105 0.24219 21.805 0.25391 22.656zm-164.45-90.852c2.5195 4.3672 6.1094 8.6523 11.566 11.746 5.832 3.3008 22.754 9.8047 45.492 12.984-27.672 2.8789-51.91 9.3828-60.012 19.777 1.2734-3.9961 2.0508-8.543 1.9922-13.715 0-1.1406-0.21484-20.051-0.32422-30.422zm178.87 40.57c0 0.13281 0.035156 0.78125 0.10937 1.6562-9.5391-11.531-38.941-16.727-65.184-18.504 13.066-2.3398 26.531-6.2148 39.996-12.602 6.6367-3.2148 17.832-13.668 17.629-32.461l-0.23828-22.176c2.375 2.9648 5.3516 5.6758 9.2539 7.7266 6.0352 3.168 24.613 9.6016 49.199 12.023-7.8242 1.1289-15.238 2.4609-21.684 4.1758-19.379 5.1484-29.148 12.238-29.051 21.086 0 0.26562 0.12109 0.49219 0.13281 0.75781l-0.55078 0.011719zm172.55-80.746-0.70703 0.011719 0.27734 26.137c-15.059-8.3867-43.523-11.797-66.383-12.59 10.285-2.1602 20.762-5.2305 31.234-9.8281 4.3906-1.9805 10.766-7.0547 14.41-15.445l22.586 5.7461c-0.94922 1.6562-1.5859 3.3828-1.5586 5.293-0.003906 0.24219 0.11719 0.43359 0.14062 0.67578zm-106.79-33.734 3.7188-0.023438c19.727-0.20312 48.047-2.5312 66.191-8.9883 0.085938 7.8242 0.17969 16.273 0.17969 16.922 0.097656 9.2031-5.9141 12.504-6.3711 12.73-53.965 23.688-111.16 5.5078-119.43 1.1875-6.5156-3.4219-6.8867-11.762-6.8867-12l-0.16797-17.41c22.023 7.2734 57.168 7.582 62.762 7.582zm-165.32 42.984 3.6133-0.023437c22.477-0.23828 43.633-2.6992 59.594-6.9375 3.8633-1.0195 7.2227-2.1484 10.297-3.3359l0.21484 20.062c0.12109 11.387-6.6484 15.395-7.1758 15.695-56.543 26.762-116.53 6.1211-125.2 1.1992-7.3672-4.1875-7.7383-14.809-7.7383-14.844l-0.22656-20.664c18.328 6.6875 46.805 8.8477 66.617 8.8477zm-177.49 50.871 3.8047-0.023437c23.832-0.26562 46.285-2.9023 63.215-7.4648 4.3672-1.1758 8.1719-2.4609 11.578-3.8281 0.10938 9.9375 0.22656 21.383 0.23828 22.309 0.14453 12.73-7.3672 17.195-7.9922 17.555-60.215 28.969-124.15 6.5898-133.38 1.2852-8.1719-4.7266-8.5664-16.598-8.5664-16.645l-0.25391-22.895c19.359 7.3281 50.066 9.707 71.355 9.707zm73.07 130.07c0.14453 13.535-7.8477 18.254-8.5312 18.637-62.879 30.238-129.53 6.8633-139.16 1.3086-8.6992-5.0156-9.0977-17.543-9.0977-17.617l-0.26562-24.203c20.074 7.7539 52.344 10.262 74.652 10.262l3.9492-0.023437c29.09-0.32422 59.52-4.1992 78.203-11.93 0.10938 10.449 0.23828 22.68 0.25391 23.566zm-144.79-84.312c6.8398 3.9375 28.176 12.035 56.305 14.855-29.891 1.1055-59.652 5.9883-75.406 14.93 1.0664-3.7578 1.7266-7.9688 1.6797-12.719-0.011719-0.9375-0.16797-14.328-0.27734-24.73l7.2617-2.0742c2.5156 3.6445 5.8633 7.0859 10.438 9.7383zm-114.61 6.3711 3.7578-0.023437c23.844-0.26562 46.297-2.9141 63.227-7.4766 4.3555-1.1758 8.1602-2.4609 11.566-3.8281 0.10938 9.9609 0.23828 21.457 0.25391 22.285 0.14453 12.742-7.3672 17.195-8.0156 17.555-60.277 28.98-124.14 6.6016-133.38 1.2969-8.1602-4.7266-8.5547-16.598-8.5547-16.645l-0.25391-22.895c19.379 7.3555 50.098 9.7305 71.398 9.7305zm-135.85 79.668 292.57 115.57v240.82l-292.57-134.23zm322.75 357.91v-241.69l671.36-221.1v198.67z"/>
</svg>
