<?xml version="1.0" encoding="UTF-8" standalone="no"?>
<!DOCTYPE svg PUBLIC "-//W3C//DTD SVG 1.1//EN" "http://www.w3.org/Graphics/SVG/1.1/DTD/svg11.dtd">
<svg width="100%" height="100%" viewBox="0 0 2000 1000" version="1.1" xmlns="http://www.w3.org/2000/svg" xmlns:xlink="http://www.w3.org/1999/xlink" xml:space="preserve" xmlns:serif="http://www.serif.com/" style="fill-rule:evenodd;clip-rule:evenodd;stroke-linejoin:round;stroke-miterlimit:2;">
    <g transform="matrix(-0.830571,0,0,0.825245,1730.9,18.8817)">
        <path d="M42.081,260.921C54.439,251.505 65.607,240.7 75.065,228.503C84.986,215.698 95.168,203.299 106.134,191.334C121.741,174.271 135.259,155.325 148.342,136.146C167.721,107.669 188.172,80.263 220.344,64.561C226.059,61.78 230.352,57.493 232.238,50.772C235.342,39.734 243.87,33.447 253.763,28.696C259.507,25.915 265.744,24.843 271.952,24.09C280.858,23.018 288.603,19.918 295.565,14.124C303.862,7.229 313.87,3.492 324.169,0.624C328.984,-0.737 332.291,-0.158 334.409,5.259C338.673,16.123 347.173,23.018 357.443,28.059C362.171,30.406 367.973,31.912 370.729,36.489C376.328,45.731 384.566,45.702 393.501,44.659C399.245,43.993 404.989,43.152 410.762,42.66C418.536,41.994 425.412,44.34 429.618,51.061C434.202,58.42 439.8,59.231 448.039,58.014C470.521,54.74 475.047,60.39 469.39,82.407C466.141,95.067 469.332,98.514 482.154,95.154C491.93,92.604 501.59,89.389 511.106,85.97C518.155,83.45 524.102,82.986 528.772,90.171C533.182,96.921 539.448,97.703 546.584,94.864C547.919,94.343 549.398,94.169 550.791,93.85C554.446,93.01 558.855,90.403 561.495,94.256C564.396,98.514 559.667,101.035 557.231,103.758C549.572,112.449 541.537,120.821 534.197,129.773C530.745,133.945 523.435,137.508 526.452,143.91C529.411,150.139 536.837,146.778 542.32,147.474C560.886,149.878 576.783,156.426 584.732,175.053C587.604,181.745 590.65,188.38 595.465,193.826C608.635,208.717 618.876,225.664 630.131,241.945C659.489,284.531 699.174,311.329 751.246,318.253C760.819,319.527 770.363,321.092 779.849,322.888C811.209,328.856 842.829,332.882 874.71,334.07C905.17,335.229 935.543,333.983 965.452,327.291C969.832,326.306 976.127,323.178 978.361,329.145C981.813,338.358 988.717,337.923 995.999,337.894C1014.39,337.836 1032.7,336.04 1050.83,333.404C1083.96,328.595 1117,325.988 1150.33,331.202C1196.43,338.387 1238.72,354.784 1277.1,381.436C1294.62,393.604 1313.33,403.888 1334.13,409.219C1368.31,417.968 1401.49,429.816 1435.41,439.406C1459.63,446.272 1482.66,456.44 1504.71,468.55C1528.73,481.76 1549.79,499.837 1575.03,511.136C1582.14,514.322 1587.24,520.464 1592.43,526.229C1613.29,549.463 1628.52,576.347 1641.95,604.217C1651.35,623.714 1662.49,642.573 1666.76,664.243C1668.21,671.659 1673.34,676.99 1678.53,682.117C1703.22,706.539 1719.61,736.813 1736.58,766.478C1747.4,785.367 1730.95,814.54 1709.4,817.35C1705.4,817.871 1701.63,816.973 1698.32,814.887C1690.05,809.673 1680.94,806.631 1671.69,803.734C1663.8,801.271 1656.57,797.216 1650.37,791.711C1624.05,768.39 1605.08,739.101 1585.96,710.131C1581.41,703.236 1577.64,696.429 1570.79,691.591C1566.06,688.259 1561.6,684.551 1557.19,680.756C1524,652.249 1493.54,621.541 1476.13,580.229C1472.57,571.712 1466.85,564.412 1460.38,557.835C1445.18,542.307 1429.75,527.011 1414.66,511.396C1401.09,497.346 1384.99,486.772 1368.6,476.516C1364.97,474.257 1360.82,472.547 1356.7,471.389C1345.91,468.318 1343.42,470.375 1344.78,481.354C1346.11,492.363 1348.38,503.256 1349.54,514.293C1354.29,559.168 1341.07,598.394 1310.2,630.985C1290.88,651.38 1268.63,668.501 1243.77,681.914C1239.53,684.203 1235.24,687.245 1230.69,687.911C1215.48,690.113 1204.95,700.542 1192.8,708.103C1179.54,716.389 1174.23,728.498 1176.41,743.91C1177.63,752.515 1177.63,761.466 1180.21,769.636C1192.28,807.819 1199.07,847.508 1213.22,885.082C1217.66,896.873 1220.5,909.098 1222.13,921.584C1223.81,934.476 1217.83,946.064 1206,951.076C1196.72,955.016 1187,959.101 1177.13,960.259C1154.04,962.983 1131.56,968.487 1108.79,972.659C1097.42,974.744 1085.84,976.599 1075.17,981.205C1034.18,998.848 995.68,1020.81 960.926,1048.97C947.408,1059.92 935.543,1071.56 941.954,1091.64C944.043,1098.13 940.62,1102.36 934.412,1105.2C921.009,1111.28 906.795,1113.77 892.377,1115.42C887.358,1116 882.485,1115.22 881.498,1108.76C880.57,1102.76 876.219,1102.47 871.693,1103.23C865.514,1104.21 858.987,1105.05 854.375,1109.77C844.047,1120.35 830.848,1128.2 824.379,1142.45C821.217,1149.41 812.949,1152.79 810.686,1160.76C809.99,1163.22 807.06,1163.57 804.565,1163.75C794.47,1164.44 784.346,1165.37 774.25,1165.95C766.882,1166.35 759.949,1164.38 753.219,1161.4C748.229,1159.2 745.937,1156.18 750.376,1151.66C759.456,1142.42 767.462,1131.68 781.01,1128.31C784.897,1127.36 787.914,1125.1 790.728,1122.32C808.888,1104.44 827.077,1086.57 845.353,1068.81C849.501,1064.78 853.823,1060.87 858.552,1057.57C868.038,1050.94 877.524,1044.19 887.562,1038.48C901.399,1030.6 910.015,1020.05 912.626,1003.74C915.556,985.405 927.479,974.31 945.203,968.574C959.505,963.939 974.126,960.868 988.833,958.145C995.332,956.957 1000.73,954.407 1005.25,949.801C1010.65,944.297 1016.51,939.111 1021.3,933.114C1034.99,915.964 1040.5,896.844 1034.99,874.884C1029.79,854.229 1023.09,834.152 1015.23,814.395C999.77,775.372 983.554,736.668 962.58,700.166C958.229,692.575 957.822,684.811 959.563,676.41C963.218,658.68 959.505,652.336 941.287,649.584C918.37,646.136 896.148,650.134 875.174,660.245C822.986,685.42 767.81,697.066 709.995,697.211C703.235,696.834 696.505,696.458 689.746,696.052C666.945,694.603 646.899,701.44 629.377,715.954C625.287,719.344 621.313,722.849 617.222,726.268C577.392,759.438 543.567,798.635 507.305,835.398C497.5,845.335 488.913,856.546 480.559,867.758C465.909,887.399 469.506,907.534 489.842,921.295C496.224,925.611 503.157,929.116 510.061,932.535C523.464,939.169 537.214,945.195 550.501,952.061C563.874,958.956 577.856,963.823 592.274,968.081C611.594,973.788 631.553,978.395 648.146,990.997C649.626,992.126 651.656,992.561 653.513,993.083C666.77,996.878 678.984,996.008 690.297,986.709C699.087,979.495 709.501,973.875 720.699,981.118C731.2,987.926 740.658,996.414 748.084,1006.73C753.683,1014.52 753.248,1017.45 744.632,1021.01C727.545,1028.11 710.459,1033.38 691.458,1026.34C665.494,1016.72 638.428,1016.66 611.42,1021.18C597.728,1023.47 585.718,1021.07 574.549,1012.72C561.785,1003.19 548.354,994.502 534.168,987.231C517.488,978.655 501.155,968.516 483.431,963.098C466.315,957.855 449.751,951.452 432.983,945.514C428.661,943.978 423.961,939.372 419.697,943.486C415.519,947.513 420.48,952.408 421.002,956.957C421.118,957.855 421.582,958.84 422.163,959.564C433.65,973.817 442.179,990.388 455.233,1003.4C462.486,1010.61 471.218,1015.77 480.617,1019.85C488.101,1023.1 495.266,1024.2 502.78,1019.85C510.148,1015.53 518.387,1015.16 526.684,1015.68C530.165,1015.88 533.82,1016.35 535.358,1019.82C541.479,1033.58 546.41,1047.66 544.699,1063.13C544.118,1068.4 541.101,1071.24 535.996,1070.55C520.215,1068.49 504.114,1067.04 491.089,1056.38C482.792,1049.57 473.625,1044.21 463.907,1039.96C447.981,1033 432.113,1025.7 415.607,1020.4C402.755,1016.29 394.488,1008.29 390.397,996.559C384.16,978.742 374.877,962.403 367.741,945.137C353.874,911.561 335.918,880.099 319.15,848.087C311.463,833.428 310.853,821.29 318.802,807.442C322.602,800.808 326.982,793.768 326.779,785.917C326.46,774.01 332.378,766.855 342.242,762.075C363.389,751.819 380.969,736.9 397.65,720.619C415.258,703.41 433.36,686.724 451.172,669.718C462.457,658.941 462.341,656.826 451.201,645.238C445.515,639.328 440.352,632.897 434.492,627.161C427.877,620.701 425.18,612.879 424.048,603.985C421.292,581.968 417.55,560.066 415.403,537.991C410.704,489.756 393.675,445.113 374.964,401.223C365.623,379.322 358.226,356.232 342.503,337.083C335.656,328.769 332.059,317.528 328.056,307.215C322.573,293.02 313.377,288.066 297.915,288.674C261.595,290.094 226.001,296.873 190.058,301.073C183.647,301.827 178.28,304.926 173.32,309.069C162.528,318.137 149.967,325.408 137.29,330.101C125.86,334.36 120.261,339.835 116.258,350.728C109.208,369.848 78.023,374.918 64.389,359.448C60.415,354.929 57.63,354.813 53.713,358.115C49.594,361.621 45.62,360.317 41.704,358.029C35.786,354.581 29.142,350.612 27.692,344.007C24.211,328.218 17.8,312.603 20.759,295.946C23.283,281.634 30.448,269.872 42.139,260.95L42.081,260.921ZM453.609,756.281C442.469,762.046 431.475,768.101 420.422,774.039C414.475,777.226 408.818,781.05 401.856,781.803C401.392,781.861 400.899,782.006 400.464,782.151C381.317,789.017 378.764,809.47 367.393,822.738C361.939,829.112 364.173,837.339 365.913,845.016C368.756,857.387 373.398,868.772 381.404,878.882C389.527,889.138 394.662,901.247 400.812,912.719C402.465,915.819 403.248,921.237 408.296,919.846C412.067,918.803 410.936,914.168 411.4,910.952C411.603,909.533 411.429,908.055 411.429,908.345C412.038,899.77 410.182,893.222 408.876,886.617C406.759,876.043 408.992,866.976 415.809,858.255C437.044,831.111 451.665,800.055 466.837,769.375C468.955,765.088 471.508,760.424 466.982,756.107C462.602,751.906 457.873,754.108 453.58,756.31L453.609,756.281ZM299.656,279.317C296.987,272.77 292.113,273.349 288.139,273.754C267.542,275.956 246.075,273.812 227.248,285.864C251.007,281.547 275.346,283.546 299.656,279.317Z" style="fill-rule:nonzero;"/>
    </g>
</svg>
