<?xml version="1.0" encoding="UTF-8"?>
<svg width="1200pt" height="1200pt" version="1.1" viewBox="0 0 1200 1200" xmlns="http://www.w3.org/2000/svg">
 <g>
  <path d="m945.31 796.8c-33.59-33.531-84.391-39.539-124.16-18.066l-8.8086-8.8125c73.473-84.781 110.25-195.68 101.33-308.93-16.039-203.26-181.41-368.63-384.67-384.67-123.37-9.7422-243.97 34.645-330.98 121.68-87.055 87.043-131.39 207.67-121.68 330.98 16.039 203.26 181.41 368.63 384.67 384.67 11.191 0.87891 22.355 1.3164 33.473 1.3164 101.43 0 199.05-36.434 275.45-102.63l8.8086 8.8125c-21.48 39.777-15.484 90.586 18.086 124.14l148.95 148.93c19.832 19.844 46.184 30.77 74.234 30.77s54.418-10.926 74.254-30.762c19.832-19.832 30.746-46.203 30.746-74.238 0-28.051-10.926-54.418-30.762-74.238zm-195.75-47.242c-74.605 74.621-178.14 112.68-283.84 104.28-174.14-13.723-315.83-155.42-329.56-329.56-8.3359-105.78 29.664-209.24 104.28-283.84 67.836-67.836 159.51-105.43 255.1-105.43 9.5508 0 19.145 0.37891 28.738 1.1445 174.14 13.727 315.84 155.42 329.56 329.56 8.3398 105.78-29.656 209.24-104.28 283.84zm302.27 302.26c-17.008 16.977-46.656 17.008-63.633 0l-148.96-148.93c-17.535-17.551-17.535-46.082 0-63.633 8.7734-8.7734 20.301-13.152 31.832-13.152 11.527 0 23.043 4.3789 31.816 13.141l148.93 148.96c8.4961 8.4766 13.184 19.785 13.184 31.797 0 12.027-4.6719 23.32-13.168 31.816z"/>
  <path d="m765 372.05c0-16.566-13.434-30-30-30s-30 13.434-30 30c0 15.195-11.602 51.945-34.016 69.371-8.4141-40.59-29.941-64.645-56.457-78.785-1.5977-20.68-8.3516-39.898-19.039-56.363l44.793-45.145c11.66-11.762 11.586-30.762-0.16016-42.438-11.777-11.66-30.746-11.602-42.438 0.16016l-46.324 46.684c-16.816-9.0391-35.996-14.199-56.359-14.199-20.367 0-39.543 5.1641-56.363 14.207l-46.324-46.684c-11.676-11.734-30.645-11.82-42.438-0.16016-11.746 11.676-11.82 30.676-0.16016 42.438l44.793 45.145c-10.684 16.465-17.438 35.684-19.039 56.363-26.516 14.141-48.043 38.195-56.457 78.785-22.41-17.43-34.012-54.184-34.012-69.379 0-16.566-13.434-30-30-30s-30 13.434-30 30c0 42.156 31.23 115.98 91.215 134.48 1.3477 15.258 3.8359 31.113 7.3789 47.156h-68.594c-16.566 0-30 13.434-30 30 0 16.566 13.434 30 30 30h86.598c0.41016 1.0781 0.82422 2.1523 1.2461 3.2266-30.484 19.91-74.906 61.426-72.832 133.94 0.47266 16.262 13.801 29.137 29.973 29.137 0.29297 0 0.58594 0 0.87891-0.015625 16.551-0.46875 29.605-14.281 29.121-30.848-1.125-39.227 21.043-63.93 39.254-77.586 31.707 53.762 75.359 93.332 125.76 93.332s94.051-39.57 125.76-93.328c18.207 13.652 40.375 38.352 39.254 77.582-0.48438 16.566 12.566 30.379 29.121 30.848 0.29297 0.015625 0.58594 0.015625 0.87891 0.015625 16.172 0 29.504-12.875 29.973-29.137 2.0742-72.516-42.344-114.03-72.832-133.94 0.41797-1.0742 0.83203-2.1484 1.2461-3.2266h86.598c16.566 0 30-13.434 30-30 0-16.566-13.434-30-30-30h-68.594c3.543-16.043 6.0312-31.902 7.3789-47.156 59.984-18.5 91.215-92.328 91.215-134.48zm-270-60.715c23.066 0 42.898 13.379 52.938 32.738-19.203-1.9844-37.676-2.0234-52.938-2.0234s-33.734 0.035156-52.934 2.0195c10.035-19.355 29.867-32.734 52.934-32.734zm0 393.54c-57.934 0-120-131.47-120-223.99 0-67.441 29.957-78.84 120-78.84s120 11.395 120 78.84c0 92.52-62.066 223.99-120 223.99z"/>
 </g>
</svg>
