<?xml version="1.0" encoding="UTF-8"?>
<svg width="1200pt" height="1200pt" version="1.1" viewBox="0 0 1200 1200" xmlns="http://www.w3.org/2000/svg">
 <path d="m1052.6 515.16c-11.719-11.719-30.719-11.719-42.422 0-11.719 11.719-11.719 30.703 0 42.422l12.422 12.422h-197.57v-120c0-69.57-83.555-125.15-195-133.72v-138.86l12.43 12.426c5.8594 5.8594 13.535 8.7891 21.211 8.7891s15.359-2.9297 21.211-8.7891c11.719-11.719 11.719-30.703 0-42.422l-63.641-63.633c-11.719-11.719-30.703-11.719-42.422 0l-63.641 63.633c-11.719 11.719-11.719 30.703 0 42.422 11.703 11.719 30.703 11.719 42.422 0l12.43-12.426v138.86c-111.45 8.5664-195 64.148-195 133.72v120h-197.57l12.422-12.422c11.719-11.719 11.719-30.703 0-42.422-11.703-11.719-30.703-11.719-42.422 0l-63.641 63.633c-5.625 5.625-8.7891 13.258-8.7891 21.211s3.1641 15.586 8.7891 21.211l63.641 63.633c5.8594 5.8594 13.535 8.7891 21.211 8.7891s15.359-2.9297 21.211-8.7891c11.719-11.719 11.719-30.703 0-42.422l-12.422-12.422h197.57v120c0 69.57 83.555 125.15 195 133.72v138.86l-12.43-12.426c-11.719-11.719-30.719-11.719-42.422 0-11.719 11.719-11.719 30.703 0 42.422l63.641 63.633c5.8594 5.8594 13.535 8.7891 21.211 8.7891s15.352-2.9297 21.211-8.7891l63.641-63.633c11.719-11.719 11.719-30.703 0-42.422-11.703-11.719-30.703-11.719-42.422 0l-12.43 12.426v-138.86c111.45-8.5664 195-64.148 195-133.72v-120h197.57l-12.422 12.422c-11.719 11.719-11.719 30.703 0 42.422 5.8516 5.8594 13.535 8.7891 21.211 8.7891s15.352-2.9297 21.211-8.7891l63.641-63.633c5.625-5.625 8.7891-13.258 8.7891-21.211s-3.1641-15.586-8.7891-21.211zm-287.57 234.84c0 35.406-70.562 75-165 75s-165-39.594-165-75v-57.543c40.797 26.258 99.082 42.543 165 42.543s124.2-16.285 165-42.543zm0-150c0 35.406-70.562 75-165 75s-165-39.594-165-75v-57.543c40.797 26.258 99.082 42.543 165 42.543s124.2-16.285 165-42.543zm-165-75c-94.438 0-165-39.594-165-75s70.562-75 165-75 165 39.594 165 75-70.562 75-165 75z"/>
</svg>
