<?xml version="1.0" encoding="UTF-8"?>
<svg width="1200pt" height="1200pt" version="1.1" viewBox="0 0 1200 1200" xmlns="http://www.w3.org/2000/svg">
 <g>
  <path d="m1065 120h-212.13c-6.707-25.809-29.996-45-57.871-45h-390c-27.875 0-51.164 19.191-57.871 45h-212.13c-33.082 0-60 26.91-60 60v840c0 33.09 26.918 60 60 60h212.13c6.707 25.809 29.996 45 57.871 45h390c27.875 0 51.164-19.191 57.871-45h212.13c33.082 0 60-26.91 60-60v-840c0-33.09-26.918-60-60-60zm-720 105h-180v60h180v90h-180v60h180v90h-180v60h180v435h-210v-840h210zm60 840v-930h390l0.035156 930zm660-45h-210v-435h180v-60h-180v-90h180v-60h-180v-90h180v-60h-180v-45h210z"/>
  <path d="m435 165h330v60h-330z"/>
  <path d="m435 330h330v60h-330z"/>
  <path d="m435 495h330v60h-330z"/>
  <path d="m540 885h120v60h-120z"/>
  <path d="m540 975h120v60h-120z"/>
  <path d="m900 900h60v60h-60z"/>
  <path d="m240 900h60v60h-60z"/>
 </g>
</svg>
