<?xml version="1.0" encoding="UTF-8"?>
<svg width="1200pt" height="1200pt" version="1.1" viewBox="0 0 1200 1200" xmlns="http://www.w3.org/2000/svg">
 <g>
  <path d="m120 1140h990v-60h-990v-990h-60v990c0 33.09 26.918 60 60 60z"/>
  <path d="m285 1035c33.082 0 60-26.91 60-60v-225c0-33.09-26.918-60-60-60h-60c-33.082 0-60 26.91-60 60v225c0 33.09 26.918 60 60 60zm-60-285h60l0.035156 225h-60.035z"/>
  <path d="m525 1035c33.082 0 60-26.91 60-60v-540c0-33.09-26.918-60-60-60h-60c-33.082 0-60 26.91-60 60v540c0 33.09 26.918 60 60 60zm-60-600h60l0.035156 540h-60.035z"/>
  <path d="m765 1035c33.082 0 60-26.91 60-60v-435c0-33.09-26.918-60-60-60h-60c-33.082 0-60 26.91-60 60v435c0 33.09 26.918 60 60 60zm-60-495h60l0.035156 435h-60.035z"/>
  <path d="m1005 1035c33.082 0 60-26.91 60-60v-690c0-33.09-26.918-60-60-60h-60c-33.082 0-60 26.91-60 60v690c0 33.09 26.918 60 60 60zm-60-750h60l0.035156 690h-60.035z"/>
 </g>
</svg>
