<?xml version="1.0" encoding="UTF-8"?>
<svg width="1200pt" height="1200pt" version="1.1" viewBox="0 0 1200 1200" xmlns="http://www.w3.org/2000/svg">
 <g>
  <path d="m1170.1 986.99c3.4375-9.2344 4.1406-19.266 2.0156-28.891-2.1211-9.6211-6.9727-18.43-13.977-25.363l-9.6094-9.6016v0.003906c-9.6836-9.7109-22.809-15.203-36.52-15.289-6.0703-0.015624-12.094 1.0938-17.762 3.2656-4.1055-8.9609-10.711-16.543-19.02-21.844-8.3125-5.2969-17.977-8.082-27.832-8.0234h-13.523c-9.8555-0.0625-19.52 2.7266-27.832 8.0195-8.3125 5.2969-14.918 12.883-19.027 21.84-5.6641-2.168-11.68-3.2734-17.746-3.2617-13.715 0.09375-26.844 5.5898-36.539 15.293l-9.5781 9.582v0.003906c-9.0156 8.9414-14.426 20.887-15.203 33.559-0.42188 7.0547 0.67188 14.113 3.207 20.711-8.9688 4.1016-16.562 10.707-21.867 19.02-5.3047 8.3164-8.0938 17.984-8.0312 27.848v13.523c-0.0625 9.8633 2.7266 19.535 8.0312 27.852 5.3047 8.3125 12.898 14.922 21.871 19.023-2.5391 6.5938-3.6328 13.656-3.2109 20.707 0.78516 12.699 6.2148 24.668 15.258 33.617l9.4922 9.5078h0.003906c9.7031 9.707 22.84 15.207 36.57 15.305 6.0625 0.011718 12.074-1.0898 17.738-3.2578 4.1094 8.9609 10.719 16.543 19.031 21.84s17.977 8.082 27.832 8.0195h13.523c9.8555 0.0625 19.52-2.7266 27.832-8.0234 8.3125-5.2969 14.918-12.883 19.023-21.844 5.6641 2.1719 11.684 3.2812 17.75 3.2656 13.715-0.085938 26.84-5.5781 36.531-15.277l9.5859-9.5859c7.0078-6.9336 11.863-15.742 13.988-25.371 2.125-9.625 1.4297-19.66-2.0078-28.902 8.9688-4.1016 16.566-10.707 21.871-19.023 5.3047-8.3164 8.0938-17.988 8.0352-27.852v-13.523c0.0625-9.8633-2.7305-19.535-8.0352-27.848-5.3047-8.3164-12.898-14.922-21.871-19.023zm-7.5938 60.395c0.39453 7.0625-4.9844 13.117-12.043 13.559h-17.25c-2.3945 10.934-6.7109 21.355-12.742 30.781l12.191 12.203h-0.003906c4.6758 5.2969 4.2031 13.371-1.0547 18.09l-9.5781 9.5781c-2.6406 2.6992-6.2422 4.2461-10.023 4.3008-3.0117 0.042968-5.918-1.1211-8.0664-3.2305l-12.207-12.23h-0.003906c-9.418 6.0547-19.84 10.383-30.777 12.773v17.258c-0.44922 7.0508-6.4961 12.422-13.551 12.031h-13.523c-7.0586 0.39453-13.113-4.9766-13.562-12.031v-17.258c-10.934-2.3945-21.355-6.7227-30.77-12.773l-12.199 12.23c-2.1523 2.1094-5.0586 3.2734-8.0703 3.2305-3.7812-0.054688-7.3906-1.6016-10.035-4.3008l-9.5625-9.5781c-5.2773-4.707-5.7578-12.793-1.0781-18.09l12.211-12.203c-6.0391-9.4258-10.359-19.848-12.758-30.781h-17.254c-7.0586-0.44141-12.438-6.5-12.039-13.559v-13.523c-0.39844-7.0586 4.9805-13.117 12.039-13.555h17.254c2.3945-10.93 6.7148-21.352 12.758-30.77l-12.211-12.211c-4.6797-5.2969-4.1992-13.387 1.0781-18.094l9.5625-9.5664c2.6406-2.707 6.25-4.2617 10.031-4.3203 3.0195-0.039062 5.9258 1.1328 8.0742 3.2539l12.199 12.199c9.418-6.0391 19.84-10.355 30.77-12.746v-17.266c0.4375-7.0625 6.5-12.441 13.562-12.039h13.523c7.0586-0.39844 13.113 4.9805 13.551 12.039v17.266c10.934 2.3867 21.359 6.7031 30.777 12.746l12.207-12.199h0.003907c2.1445-2.125 5.0547-3.293 8.0703-3.2539 3.7812 0.058594 7.3828 1.6094 10.02 4.3203l9.5781 9.5664c5.2578 4.7188 5.7305 12.797 1.0547 18.094l-12.191 12.211h0.003906c6.0352 9.4219 10.348 19.84 12.742 30.77h17.25c7.0586 0.4375 12.438 6.4922 12.043 13.555z"/>
  <path d="m1040.6 975c-17.406 0-34.098 6.9141-46.402 19.223-12.309 12.305-19.223 28.996-19.223 46.402s6.9141 34.098 19.223 46.402c12.305 12.309 28.996 19.223 46.402 19.223s34.098-6.9141 46.402-19.223c12.309-12.305 19.223-28.996 19.223-46.402s-6.9141-34.098-19.219-46.406c-12.309-12.305-29-19.219-46.406-19.219zm0 93.75c-7.4609 0-14.613-2.9648-19.887-8.2383-5.2734-5.2734-8.2383-12.426-8.2383-19.887s2.9648-14.613 8.2383-19.887c5.2734-5.2734 12.426-8.2383 19.887-8.2383s14.613 2.9648 19.887 8.2383c5.2734 5.2734 8.2383 12.426 8.2383 19.887-0.007812 7.457-2.9727 14.605-8.2461 19.879-5.2734 5.2734-12.422 8.2383-19.879 8.2461z"/>
  <path d="m1170.1 105.74c2.5625-6.7422 3.6328-13.961 3.1328-21.156-0.32422-4.8398-1.3359-9.6055-3-14.16-2.6016-7.1172-6.7305-13.582-12.094-18.938l-9.6094-9.6016c-3.1719-3.082-6.7227-5.7422-10.57-7.9219-7.8438-4.7188-16.801-7.2617-25.949-7.3672-6.0703-0.011718-12.094 1.0977-17.762 3.2695-4.1055-8.9609-10.711-16.547-19.02-21.844-8.3125-5.2969-17.977-8.0859-27.832-8.0234h-13.523c-9.8555-0.0625-19.52 2.7266-27.832 8.0195-8.3125 5.2969-14.918 12.883-19.027 21.84-2.8008-1.0742-5.6953-1.8906-8.6445-2.4336-3-0.55078-6.0469-0.82812-9.1016-0.82812-13.715 0.09375-26.844 5.5898-36.539 15.293l-9.5781 9.582c-1.7734 1.832-3.4102 3.7891-4.8984 5.8555-2.2773 2.9727-4.2266 6.1797-5.8125 9.5703-2.5938 5.7188-4.1172 11.867-4.4922 18.137-0.42188 7.0547 0.67188 14.113 3.207 20.707-8.9688 4.1055-16.562 10.711-21.867 19.023-5.3047 8.3164-8.0938 17.984-8.0312 27.848v13.523c-0.0625 9.8633 2.7266 19.535 8.0312 27.852 5.3047 8.3125 12.898 14.922 21.871 19.023-2.5391 6.5938-3.6328 13.656-3.2109 20.707 0.1875 3.1406 0.66016 6.2539 1.4219 9.3008 2.3086 9.2148 7.0938 17.625 13.836 24.316l9.4805 9.4922 0.015624 0.015625c9.7031 9.707 22.84 15.207 36.57 15.305 6.0625 0.011718 12.078-1.0898 17.738-3.2578 0.98047 2.1875 2.1211 4.3008 3.4141 6.3203 2.582 4.043 5.7305 7.6914 9.3438 10.84 9.457 8.2227 21.574 12.734 34.105 12.699h13.523c10.055 0.023438 19.902-2.8789 28.34-8.3516 4.0352-2.6211 7.6797-5.8008 10.824-9.4414 3.1367-3.6328 5.7266-7.6992 7.6914-12.074 5.6641 2.1719 11.684 3.2812 17.75 3.2656 12.414-0.14453 24.363-4.7344 33.68-12.941 0.92969-0.80469 1.9727-1.4609 2.8516-2.3359l9.5859-9.5859c1.5117-1.5508 2.9297-3.1914 4.2422-4.918 6.3867-8.082 10.176-17.914 10.867-28.195 0.16406-2.3906 0.15625-4.793-0.023437-7.1836-0.35156-4.7852-1.3984-9.4922-3.1055-13.977 8.9727-4.1016 16.566-10.707 21.871-19.023 5.3047-8.3164 8.0938-17.988 8.0352-27.852v-13.523c0.035156-12.539-4.4844-24.664-12.719-34.117-4.7383-5.4453-10.602-9.7969-17.188-12.754zm-7.5938 60.395c0.39453 7.0625-4.9844 13.117-12.043 13.559h-17.25c-2.3945 10.934-6.7109 21.355-12.742 30.781l12.191 12.203h-0.003906c2.293 2.3438 3.4648 5.5586 3.2148 8.8281-0.24609 3.5039-1.7656 6.7969-4.2695 9.2617l-9.5781 9.5781c-2.0117 2.0352-4.5781 3.4375-7.3789 4.0312-0.86719 0.17969-1.7539 0.26953-2.6445 0.26953-3.0117 0.042968-5.918-1.1211-8.0664-3.2305l-12.207-12.23h-0.003906c-9.4141 6.0547-19.84 10.383-30.777 12.773v17.258c0 1.6211-0.36719 3.2188-1.0664 4.6797-2.4141 4.6328-7.2617 7.4883-12.484 7.3516h-13.523c-5.2266 0.13672-10.078-2.7148-12.496-7.3516-0.70312-1.4609-1.0664-3.0586-1.0664-4.6797v-17.258c-10.934-2.3945-21.355-6.7227-30.77-12.773l-12.199 12.23c-2.1523 2.1094-5.0586 3.2734-8.0703 3.2305-2.7695-0.023438-5.4648-0.86719-7.7539-2.4258-0.82031-0.55078-1.582-1.1797-2.2812-1.875l-9.5625-9.5781c-2.5156-2.457-4.043-5.7539-4.293-9.2617-0.24609-3.2695 0.92578-6.4844 3.2148-8.8281l12.211-12.203c-6.0391-9.4258-10.359-19.848-12.758-30.781h-17.254c-7.0586-0.44141-12.438-6.5-12.039-13.559v-13.523c-0.39844-7.0586 4.9805-13.117 12.039-13.555h17.254c2.3945-10.93 6.7148-21.352 12.758-30.77l-12.211-12.211c-1.1445-1.1484-2.0195-2.5391-2.5586-4.0703-0.53516-1.5273-0.75781-3.1445-0.65625-4.7578 0.25-3.5117 1.7773-6.8047 4.293-9.2656l9.5625-9.5664c2.6406-2.707 6.25-4.2617 10.031-4.3203 3.0195-0.039062 5.9258 1.1328 8.0742 3.2539l12.199 12.199c9.418-6.0391 19.84-10.355 30.77-12.746v-17.266c0.4375-7.0625 6.5-12.441 13.562-12.039h13.523c7.0586-0.39844 13.113 4.9805 13.551 12.039v17.266c10.934 2.3867 21.359 6.7031 30.777 12.746l12.207-12.199h0.003907c2.1445-2.1211 5.0547-3.293 8.0703-3.2539 1.8086 0.011719 3.5938 0.37891 5.2578 1.0898 1.7812 0.75781 3.3984 1.8555 4.7617 3.2305l9.5781 9.5664c2.5039 2.4648 4.0234 5.7578 4.2695 9.2656 0.10156 1.6133-0.12109 3.2305-0.65234 4.7578-0.53906 1.5312-1.4141 2.9219-2.5625 4.0703l-12.191 12.211h0.003906c6.0352 9.4219 10.348 19.84 12.742 30.77h17.25c7.0586 0.44141 12.438 6.4961 12.043 13.555z"/>
  <path d="m166.14 1200c9.8555 0.0625 19.52-2.7266 27.832-8.0234 8.3125-5.2969 14.918-12.883 19.023-21.844 5.6641 2.1719 11.684 3.2812 17.75 3.2656 13.715-0.085938 26.84-5.5781 36.531-15.277l9.5859-9.5859c7.0078-6.9336 11.863-15.742 13.988-25.371 2.125-9.625 1.4297-19.66-2.0078-28.902 8.9688-4.1016 16.566-10.707 21.871-19.023 5.3047-8.3164 8.0938-17.988 8.0352-27.852v-13.523c0.0625-9.8633-2.7305-19.535-8.0352-27.848-5.3047-8.3164-12.898-14.922-21.871-19.023 3.4375-9.2344 4.1406-19.266 2.0156-28.891-2.1211-9.6211-6.9727-18.43-13.977-25.363l-9.6094-9.6016v0.003906c-9.6836-9.7109-22.809-15.203-36.52-15.289-6.0703-0.015624-12.094 1.0938-17.762 3.2656-4.1055-8.9609-10.711-16.543-19.02-21.844-8.3125-5.2969-17.977-8.082-27.832-8.0234h-13.523c-9.8555-0.0625-19.52 2.7266-27.832 8.0195-8.3125 5.2969-14.918 12.883-19.027 21.84-5.6641-2.168-11.68-3.2734-17.746-3.2617-13.715 0.09375-26.844 5.5898-36.539 15.293l-9.5781 9.5859c-9.0156 8.9414-14.426 20.887-15.203 33.559-0.42188 7.0547 0.67188 14.113 3.207 20.711-8.9688 4.1016-16.562 10.707-21.867 19.02-5.3047 8.3164-8.0938 17.984-8.0312 27.848v13.523c-0.0625 9.8633 2.7266 19.535 8.0312 27.852 5.3047 8.3125 12.898 14.922 21.871 19.023-2.5391 6.5938-3.6328 13.656-3.2109 20.707 0.78516 12.699 6.2148 24.668 15.258 33.617l9.4961 9.5078c9.7031 9.7109 22.84 15.207 36.57 15.305 6.0625 0.015624 12.074-1.0898 17.738-3.2578 4.1094 8.9609 10.719 16.543 19.031 21.84s17.977 8.082 27.832 8.0195zm-27.086-49.531v-17.258c-10.934-2.3945-21.355-6.7227-30.77-12.773l-12.199 12.23c-2.1523 2.1094-5.0586 3.2734-8.0703 3.2305-3.7812-0.054688-7.3906-1.6016-10.035-4.3008l-9.5625-9.5781c-5.2773-4.707-5.7578-12.793-1.0781-18.09l12.211-12.203c-6.0391-9.4258-10.359-19.848-12.758-30.781h-17.254c-7.0586-0.44141-12.438-6.5-12.039-13.559v-13.523c-0.39844-7.0586 4.9805-13.117 12.039-13.555h17.254c2.3945-10.93 6.7148-21.352 12.758-30.77l-12.211-12.211c-4.6797-5.2969-4.1992-13.387 1.0781-18.094l9.5625-9.5664c2.6406-2.707 6.25-4.2617 10.031-4.3203 3.0195-0.039062 5.9258 1.1328 8.0742 3.2539l12.199 12.199c9.418-6.0391 19.84-10.355 30.77-12.746v-17.266c0.4375-7.0625 6.5-12.441 13.562-12.039h13.523c7.0586-0.39844 13.113 4.9805 13.551 12.039v17.266c10.934 2.3867 21.359 6.7031 30.777 12.746l12.207-12.199h0.003907c2.1445-2.125 5.0547-3.293 8.0703-3.2539 3.7812 0.058594 7.3828 1.6094 10.02 4.3203l9.5781 9.5664c5.2578 4.7188 5.7305 12.797 1.0547 18.094l-12.191 12.211h0.003906c6.0352 9.4219 10.348 19.84 12.742 30.77h17.25c7.0586 0.4375 12.438 6.4961 12.043 13.555v13.523c0.39453 7.0625-4.9844 13.117-12.043 13.559h-17.25c-2.3945 10.934-6.7109 21.355-12.742 30.781l12.191 12.203h-0.003906c4.6758 5.2969 4.2031 13.371-1.0547 18.09l-9.5781 9.5781c-2.6406 2.6992-6.2422 4.2461-10.023 4.3008-3.0117 0.042968-5.918-1.1211-8.0664-3.2305l-12.207-12.23h-0.003906c-9.4141 6.0547-19.84 10.383-30.777 12.773v17.258c-0.44922 7.0508-6.4961 12.422-13.551 12.031h-13.523c-7.0586 0.39453-13.113-4.9766-13.562-12.031z"/>
  <path d="m225 1040.6c0-17.406-6.9141-34.098-19.223-46.402-12.305-12.309-28.996-19.223-46.402-19.223s-34.098 6.9141-46.402 19.223c-12.309 12.305-19.223 28.996-19.223 46.402s6.9141 34.098 19.223 46.402c12.305 12.309 28.996 19.223 46.402 19.223 17.402-0.003906 34.094-6.918 46.402-19.223 12.305-12.309 19.219-29 19.223-46.402zm-93.75 0c0-7.4609 2.9648-14.613 8.2383-19.887 5.2734-5.2734 12.426-8.2383 19.887-8.2383s14.613 2.9648 19.887 8.2383c5.2734 5.2734 8.2383 12.426 8.2383 19.887s-2.9648 14.613-8.2383 19.887c-5.2734 5.2734-12.426 8.2383-19.887 8.2383-7.457-0.007812-14.605-2.9727-19.879-8.2461-5.2734-5.2734-8.2383-12.422-8.2461-19.879z"/>
  <path d="m29.902 213.01c-2.5391 6.5938-3.6328 13.656-3.2109 20.707 0.78516 12.699 6.2148 24.668 15.258 33.617l9.4922 9.5078h0.003906c9.7031 9.707 22.84 15.207 36.57 15.305 6.0625 0.011718 12.078-1.0898 17.738-3.2578 4.1094 8.9609 10.719 16.543 19.031 21.84s17.977 8.082 27.832 8.0195h13.523c9.8555 0.058594 19.52-2.7266 27.832-8.0234 8.3125-5.2969 14.918-12.883 19.023-21.844 5.6641 2.1719 11.684 3.2812 17.75 3.2656 13.715-0.085938 26.836-5.5781 36.531-15.277l9.5859-9.5859c7.0078-6.9336 11.863-15.742 13.988-25.371 2.125-9.625 1.4297-19.66-2.0078-28.902 8.9727-4.1016 16.566-10.707 21.871-19.023 5.3047-8.3164 8.0938-17.988 8.0352-27.852v-13.523c0.0625-9.8633-2.7305-19.535-8.0352-27.848-5.3047-8.3164-12.898-14.922-21.871-19.023 3.4414-9.2344 4.1406-19.266 2.0195-28.891-2.125-9.6211-6.9766-18.43-13.98-25.363l-9.6094-9.6016c-9.6836-9.707-22.809-15.203-36.52-15.289-6.0742-0.011718-12.094 1.0977-17.762 3.2695-4.1055-8.9609-10.711-16.547-19.02-21.844-8.3125-5.2969-17.977-8.082-27.832-8.0234h-13.523c-9.8555-0.0625-19.52 2.7266-27.832 8.0195-8.3125 5.2969-14.918 12.883-19.027 21.84-5.6641-2.168-11.68-3.2734-17.746-3.2617-13.715 0.09375-26.844 5.5859-36.539 15.293l-9.5781 9.582c-9.0156 8.9453-14.426 20.891-15.203 33.562-0.42188 7.0547 0.67188 14.113 3.207 20.711-8.9688 4.1016-16.562 10.707-21.867 19.02-5.3047 8.3164-8.0938 17.984-8.0312 27.848v13.523c-0.0625 9.8633 2.7266 19.535 8.0312 27.852 5.3047 8.3125 12.898 14.922 21.871 19.023zm7.5977-60.398c-0.39844-7.0586 4.9805-13.117 12.039-13.555h17.254c2.3945-10.93 6.7148-21.352 12.758-30.77l-12.211-12.211c-4.6797-5.2969-4.1992-13.387 1.0781-18.094l9.5625-9.5664c2.6406-2.707 6.25-4.2617 10.031-4.3203 3.0195-0.039062 5.9258 1.1328 8.0742 3.2539l12.199 12.199c9.418-6.0391 19.84-10.355 30.77-12.746v-17.266c0.4375-7.0625 6.5-12.441 13.562-12.039h13.523c7.0586-0.39844 13.113 4.9805 13.551 12.039v17.266c10.934 2.3867 21.359 6.7031 30.777 12.746l12.207-12.199h0.003907c2.1445-2.1211 5.0547-3.293 8.0703-3.2539 3.7812 0.058594 7.3828 1.6094 10.02 4.3203l9.5781 9.5664c5.2578 4.7188 5.7305 12.797 1.0547 18.094l-12.191 12.211h0.003906c6.0352 9.4219 10.348 19.84 12.742 30.77h17.25c7.0586 0.4375 12.438 6.4922 12.043 13.555v13.523c0.39453 7.0625-4.9844 13.117-12.043 13.559h-17.25c-2.3945 10.934-6.7109 21.355-12.742 30.781l12.191 12.203h-0.003906c4.6758 5.2969 4.2031 13.371-1.0547 18.09l-9.5781 9.5781c-2.6406 2.6992-6.2422 4.2461-10.023 4.3008-3.0117 0.042968-5.918-1.1211-8.0664-3.2305l-12.211-12.23c-9.4141 6.0547-19.84 10.383-30.777 12.773v17.258c-0.44922 7.0508-6.4961 12.422-13.551 12.031h-13.523c-7.0547 0.39453-13.113-4.9766-13.562-12.031v-17.258c-10.934-2.3945-21.355-6.7227-30.77-12.773l-12.199 12.23c-2.1523 2.1094-5.0586 3.2734-8.0703 3.2305-3.7812-0.054688-7.3867-1.6016-10.035-4.3008l-9.5625-9.5781c-5.2773-4.707-5.7578-12.793-1.0781-18.09l12.211-12.203c-6.0391-9.4258-10.359-19.848-12.758-30.781h-17.254c-7.0586-0.44141-12.438-6.5-12.039-13.559z"/>
  <path d="m159.38 225c17.406 0 34.098-6.9141 46.402-19.223 12.309-12.305 19.223-28.996 19.223-46.402s-6.9141-34.098-19.223-46.402c-12.305-12.309-28.996-19.223-46.402-19.223s-34.098 6.9141-46.402 19.223c-12.309 12.305-19.223 28.996-19.223 46.402 0.003906 17.402 6.918 34.094 19.227 46.398 12.305 12.309 28.996 19.223 46.398 19.227zm0-93.75c7.4609 0 14.613 2.9648 19.887 8.2383 5.2734 5.2734 8.2383 12.426 8.2383 19.887s-2.9648 14.613-8.2383 19.887c-5.2734 5.2734-12.426 8.2383-19.887 8.2383s-14.613-2.9648-19.887-8.2383c-5.2734-5.2734-8.2383-12.426-8.2383-19.887 0.007812-7.457 2.9727-14.605 8.2461-19.879 5.2734-5.2734 12.422-8.2383 19.879-8.2461z"/>
  <path d="m1040.6 93.75c-17.406 0-34.098 6.9141-46.402 19.223-12.309 12.305-19.223 28.996-19.223 46.402s6.9141 34.098 19.223 46.402c12.305 12.309 28.996 19.223 46.402 19.223s34.098-6.9141 46.402-19.223c12.309-12.305 19.223-28.996 19.223-46.402s-6.9141-34.098-19.219-46.406c-12.309-12.305-29-19.219-46.406-19.219zm0 93.75c-7.4609 0-14.613-2.9648-19.887-8.2383-5.2734-5.2734-8.2383-12.426-8.2383-19.887s2.9648-14.613 8.2383-19.887c5.2734-5.2734 12.426-8.2383 19.887-8.2383s14.613 2.9648 19.887 8.2383c5.2734 5.2734 8.2383 12.426 8.2383 19.887-0.007812 7.457-2.9727 14.605-8.2461 19.879-5.2734 5.2734-12.422 8.2383-19.879 8.2461z"/>
  <path d="m1177.5 613.95c-10.961-4.7891-23.512-4.2969-34.062 1.3359v-184.04c0-6.6992-3.5742-12.887-9.375-16.238-5.8008-3.3477-12.949-3.3477-18.75 0-5.8008 3.3516-9.375 9.5391-9.375 16.238v225.5c0 4.9023 1.918 9.6094 5.3438 13.113 3.4297 3.5039 8.0938 5.5234 12.992 5.6328 4.9023 0.10938 9.6484-1.707 13.227-5.0586l23.469-21.965c0.44531-0.33984 1.0508-0.39062 1.5469-0.12891l0.24609 27.879-67.273 70.551c-4.5547 4.0234-11.391 4.0273-15.949 0.007812l-67.027-69.715v-28.723c0.49609-0.26172 1.1016-0.21094 1.5469 0.12891l23.465 21.965c3.5781 3.3516 8.3242 5.1641 13.227 5.0586 4.8984-0.10938 9.5625-2.1289 12.992-5.6328 3.4258-3.5039 5.3438-8.2109 5.3438-13.113v-225.5c0-6.6992-3.5742-12.887-9.375-16.238-5.8008-3.3477-12.949-3.3477-18.75 0-5.8008 3.3516-9.375 9.5391-9.375 16.238v184.04c-10.555-5.6211-23.098-6.1133-34.062-1.3359-6.6641 2.7539-12.359 7.4258-16.367 13.418-4.0078 5.9961-6.1445 13.043-6.1445 20.254v29.445c0.007812 9.3359 3.6328 18.305 10.113 25.027l67.281 70.57c9.2188 9.4844 21.883 14.832 35.109 14.832 13.227 0 25.891-5.3555 35.105-14.84l67.266-70.543c6.4844-6.7266 10.113-15.703 10.125-25.047v-29.445c0-7.2109-2.1367-14.258-6.1445-20.254-4.0078-5.9922-9.7031-10.664-16.367-13.418z"/>
  <path d="m22.512 586.05c10.965 4.7773 23.508 4.2852 34.062-1.3359v184.04c0 6.6992 3.5742 12.887 9.375 16.238 5.8008 3.3477 12.949 3.3477 18.75 0 5.8008-3.3516 9.375-9.5391 9.375-16.238v-225.5c0-4.9023-1.918-9.6094-5.3438-13.113-3.4297-3.5039-8.0938-5.5234-12.992-5.6328-4.9023-0.10938-9.6484 1.707-13.227 5.0586l-23.469 21.965c-0.44922 0.33594-1.0508 0.38672-1.5469 0.12891l-0.24609-27.879 67.273-70.551c4.5547-4.0234 11.391-4.0273 15.949-0.007812l67.027 69.715v28.723c-0.49609 0.25781-1.0977 0.20703-1.5469-0.12891l-23.465-21.965c-3.5781-3.3516-8.3281-5.1641-13.227-5.0586-4.9023 0.10938-9.5625 2.1289-12.992 5.6328-3.4258 3.5039-5.3438 8.2109-5.3438 13.113v225.5c0 6.6992 3.5742 12.887 9.375 16.238 5.8008 3.3477 12.949 3.3477 18.75 0 5.8008-3.3516 9.375-9.5391 9.375-16.238v-184.04c10.555 5.6133 23.098 6.1055 34.062 1.3359 6.6641-2.7539 12.359-7.4258 16.367-13.418 4.0078-5.9961 6.1445-13.043 6.1445-20.254v-29.445c-0.007812-9.3359-3.6328-18.305-10.113-25.027l-67.281-70.57c-9.2188-9.4844-21.883-14.836-35.109-14.832-13.227 0-25.891 5.3555-35.105 14.84l-67.266 70.543c-6.4844 6.7266-10.113 15.703-10.125 25.047v29.445c0 7.2109 2.1367 14.258 6.1445 20.254 4.0078 5.9922 9.7031 10.664 16.367 13.418z"/>
  <path d="m576.67 997.51c-2.7539-6.6641-7.4258-12.359-13.418-16.367-5.9961-4.0078-13.043-6.1445-20.254-6.1445h-29.441c-9.3359 0.015625-18.305 3.6367-25.035 10.109l-70.551 67.273v-0.003906c-9.4883 9.2188-14.844 21.887-14.844 35.117 0 13.227 5.3516 25.895 14.84 35.113l70.57 67.293c6.7266 6.4648 15.691 10.082 25.02 10.098h29.441c7.2109 0 14.258-2.1367 20.254-6.1445 5.9922-4.0078 10.664-9.7031 13.418-16.367 4.7852-10.961 4.2969-23.504-1.3242-34.059h184.03c6.6992 0 12.887-3.5742 16.238-9.375 3.3477-5.8008 3.3477-12.949 0-18.75-3.3516-5.8008-9.5391-9.375-16.238-9.375h-225.5c-4.9023 0-9.6094 1.918-13.113 5.3477-3.5039 3.4258-5.5273 8.0898-5.6328 12.992-0.10938 4.9023 1.707 9.6484 5.0586 13.227l21.969 23.445v0.003906c0.33984 0.45313 0.38672 1.0625 0.11719 1.5625l-27.867 0.24609-70.559-67.293v0.003906c-4.293-4.4453-4.293-11.496 0.003906-15.938l69.707-67.027h28.723c0.26172 0.49609 0.21484 1.0977-0.125 1.5469l-21.969 23.457c-3.3516 3.5781-5.168 8.3242-5.0586 13.227 0.10547 4.9023 2.1289 9.5664 5.6328 12.992 3.5039 3.4297 8.2109 5.3477 13.113 5.3477h225.5c6.6992 0 12.887-3.5742 16.238-9.375 3.3477-5.8008 3.3477-12.949 0-18.75-3.3516-5.8008-9.5391-9.375-16.238-9.375h-184.03c5.6211-10.555 6.1094-23.098 1.3242-34.059z"/>
  <path d="m661.07 162.5c3.3516-3.5781 5.168-8.3242 5.0586-13.227-0.10547-4.9023-2.1289-9.5664-5.6328-12.992-3.5039-3.4297-8.2109-5.3477-13.113-5.3477h-225.5c-6.6992 0-12.887 3.5742-16.238 9.375-3.3477 5.8008-3.3477 12.949 0 18.75 3.3516 5.8008 9.5391 9.375 16.238 9.375h184.03c-5.6211 10.555-6.1094 23.098-1.3242 34.059 2.7539 6.6641 7.4258 12.359 13.418 16.367 5.9961 4.0078 13.043 6.1445 20.254 6.1445h29.441c9.3359-0.015625 18.305-3.6367 25.035-10.105l70.551-67.273c9.4883-9.2188 14.844-21.887 14.844-35.117 0-13.227-5.3516-25.895-14.84-35.113l-70.57-67.293c-6.7266-6.4648-15.691-10.082-25.02-10.098h-29.441c-7.2109 0-14.258 2.1367-20.254 6.1445-5.9922 4.0078-10.664 9.7031-13.418 16.367-4.7852 10.961-4.2969 23.504 1.3242 34.059h-184.03c-6.6992 0-12.887 3.5742-16.238 9.375-3.3477 5.8008-3.3477 12.949 0 18.75 3.3516 5.8008 9.5391 9.375 16.238 9.375h225.5c4.9023 0 9.6094-1.918 13.113-5.3477 3.5039-3.4258 5.5273-8.0898 5.6328-12.992 0.10938-4.9023-1.707-9.6484-5.0586-13.227l-21.969-23.449c-0.33984-0.45313-0.38672-1.0625-0.11719-1.5625l27.867-0.24609 70.559 67.293v-0.003906c4.293 4.4453 4.293 11.496-0.003906 15.938l-69.707 67.027h-28.723c-0.26172-0.49609-0.21484-1.0977 0.125-1.5469z"/>
  <path d="m890.62 721.88v-356.25c-0.015625-14.914-5.9492-29.211-16.492-39.758-10.547-10.543-24.844-16.477-39.758-16.492h-468.75c-14.914 0.015625-29.211 5.9492-39.758 16.492-10.543 10.547-16.477 24.844-16.492 39.758v356.25c0.015625 14.914 5.9492 29.211 16.492 39.758 10.547 10.543 24.844 16.477 39.758 16.492h153.12v65.625h-68.75c-6.6992 0-12.887 3.5742-16.238 9.375-3.3477 5.8008-3.3477 12.949 0 18.75 3.3516 5.8008 9.5391 9.375 16.238 9.375h300c6.6992 0 12.887-3.5742 16.238-9.375 3.3477-5.8008 3.3477-12.949 0-18.75-3.3516-5.8008-9.5391-9.375-16.238-9.375h-68.75v-65.625h153.12c14.914-0.015625 29.211-5.9492 39.758-16.492 10.543-10.547 16.477-24.844 16.492-39.758zm-246.88 121.88h-87.496l-0.003906-62.504h87.496zm-278.12-103.12c-4.9727-0.003906-9.7383-1.9844-13.254-5.4961-3.5117-3.5156-5.4922-8.2812-5.4961-13.254v-356.25c0.003906-4.9727 1.9844-9.7383 5.4961-13.254 3.5156-3.5117 8.2812-5.4922 13.254-5.4961h468.75c4.9727 0.003906 9.7383 1.9844 13.254 5.4961 3.5117 3.5156 5.4922 8.2812 5.4961 13.254v356.25c-0.003906 4.9727-1.9844 9.7383-5.4961 13.254-3.5156 3.5117-8.2812 5.4922-13.254 5.4961z"/>
  <path d="m729.47 490.12c3.4414-9.2344 4.1406-19.266 2.0195-28.891-2.125-9.6211-6.9766-18.43-13.98-25.363l-9.6094-9.6016c-9.6836-9.707-22.809-15.203-36.52-15.289-6.0742-0.011718-12.094 1.0977-17.762 3.2695-4.1055-8.9609-10.711-16.547-19.02-21.844-8.3125-5.2969-17.977-8.082-27.832-8.0234h-13.523c-9.8555-0.0625-19.52 2.7266-27.832 8.0195-8.3125 5.2969-14.918 12.883-19.027 21.84-5.6641-2.168-11.68-3.2734-17.746-3.2617-13.715 0.09375-26.844 5.5859-36.539 15.293l-9.5781 9.582c-9.0156 8.9453-14.426 20.891-15.203 33.562-0.42188 7.0547 0.67188 14.113 3.207 20.711-8.9688 4.1016-16.562 10.707-21.867 19.02-5.3047 8.3164-8.0938 17.984-8.0312 27.848v13.523c-0.0625 9.8633 2.7266 19.535 8.0312 27.852 5.3047 8.3125 12.898 14.922 21.871 19.023-2.5391 6.5938-3.6328 13.656-3.2109 20.707 0.78516 12.699 6.2148 24.668 15.258 33.617l9.4922 9.5078h0.003906c9.7031 9.707 22.84 15.207 36.57 15.305 6.0625 0.011718 12.074-1.0898 17.738-3.2578 4.1094 8.9609 10.719 16.543 19.031 21.84s17.977 8.082 27.832 8.0195h13.523c9.8555 0.0625 19.52-2.7266 27.832-8.0234 8.3125-5.2969 14.918-12.883 19.023-21.844 5.6641 2.1719 11.684 3.2812 17.75 3.2656 13.715-0.085938 26.84-5.5781 36.531-15.277l9.5859-9.5859c7.0078-6.9336 11.863-15.742 13.988-25.371 2.125-9.625 1.4297-19.66-2.0078-28.902 8.9727-4.1016 16.566-10.707 21.871-19.023 5.3047-8.3164 8.0938-17.988 8.0352-27.852v-13.523c0.0625-9.8633-2.7305-19.535-8.0352-27.848-5.3047-8.3164-12.898-14.922-21.871-19.023zm-7.5938 60.395c0.39453 7.0625-4.9844 13.117-12.043 13.559h-17.25c-2.3945 10.934-6.7109 21.355-12.742 30.781l12.191 12.203h-0.003906c4.6758 5.2969 4.2031 13.371-1.0547 18.09l-9.5781 9.5781c-2.6406 2.6992-6.2422 4.2461-10.023 4.3008-3.0117 0.042968-5.918-1.1211-8.0664-3.2305l-12.211-12.23c-9.4141 6.0547-19.84 10.383-30.777 12.773v17.258c-0.44922 7.0508-6.4961 12.422-13.551 12.031h-13.523c-7.0586 0.39453-13.113-4.9766-13.562-12.031v-17.258c-10.934-2.3945-21.355-6.7227-30.77-12.773l-12.199 12.23c-2.1523 2.1094-5.0586 3.2734-8.0703 3.2305-3.7812-0.054688-7.3906-1.6016-10.035-4.3008l-9.5625-9.5781c-5.2773-4.707-5.7578-12.793-1.0781-18.09l12.211-12.203c-6.0391-9.4258-10.359-19.848-12.758-30.781h-17.254c-7.0586-0.44141-12.438-6.5-12.039-13.559v-13.523c-0.39844-7.0586 4.9805-13.117 12.039-13.555h17.254c2.3945-10.93 6.7148-21.352 12.758-30.77l-12.211-12.211c-4.6797-5.2969-4.1992-13.387 1.0781-18.094l9.5625-9.5664c2.6406-2.707 6.25-4.2617 10.031-4.3203 3.0195-0.039062 5.9258 1.1328 8.0742 3.2539l12.199 12.199c9.418-6.0391 19.84-10.355 30.77-12.746v-17.266c0.4375-7.0625 6.5-12.441 13.562-12.039h13.523c7.0586-0.39844 13.113 4.9805 13.551 12.039v17.266c10.934 2.3867 21.359 6.7031 30.777 12.746l12.207-12.199h0.003907c2.1445-2.1211 5.0547-3.293 8.0703-3.2539 3.7812 0.058594 7.3828 1.6094 10.02 4.3203l9.5781 9.5664c5.2578 4.7188 5.7305 12.797 1.0547 18.094l-12.191 12.211h0.003906c6.0352 9.4219 10.348 19.84 12.742 30.77h17.25c7.0586 0.4375 12.438 6.4922 12.043 13.555z"/>
  <path d="m600 478.12c-17.406 0-34.098 6.9141-46.402 19.223-12.309 12.305-19.223 28.996-19.223 46.402s6.9141 34.098 19.223 46.402c12.305 12.309 28.996 19.223 46.402 19.223s34.098-6.9141 46.402-19.223c12.309-12.305 19.223-28.996 19.223-46.402s-6.9141-34.098-19.219-46.406c-12.309-12.305-29-19.219-46.406-19.219zm0 93.75c-7.4609 0-14.613-2.9648-19.887-8.2383-5.2734-5.2734-8.2383-12.426-8.2383-19.887s2.9648-14.613 8.2383-19.887c5.2734-5.2734 12.426-8.2383 19.887-8.2383s14.613 2.9648 19.887 8.2383c5.2734 5.2734 8.2383 12.426 8.2383 19.887-0.007812 7.457-2.9727 14.605-8.2461 19.879-5.2734 5.2734-12.422 8.2383-19.879 8.2461z"/>
 </g>
</svg>
