<svg width="20" height="18" viewBox="0 0 20 18" fill="none" xmlns="http://www.w3.org/2000/svg">
<path id="laps" d="M7 17.3335L5.575 15.9335L7.175 14.3335H7C5.05 14.3335 3.39583 13.6543 2.0375 12.296C0.679167 10.9377 0 9.2835 0 7.3335C0 5.3835 0.679167 3.72933 2.0375 2.371C3.39583 1.01266 5.05 0.333496 7 0.333496H13C14.95 0.333496 16.6042 1.01266 17.9625 2.371C19.3208 3.72933 20 5.3835 20 7.3335C20 9.2835 19.3208 10.9377 17.9625 12.296C16.6042 13.6543 14.95 14.3335 13 14.3335V12.3335C14.3833 12.3335 15.5625 11.846 16.5375 10.871C17.5125 9.896 18 8.71683 18 7.3335C18 5.95016 17.5125 4.771 16.5375 3.796C15.5625 2.821 14.3833 2.3335 13 2.3335H7C5.61667 2.3335 4.4375 2.821 3.4625 3.796C2.4875 4.771 2 5.95016 2 7.3335C2 8.71683 2.4875 9.896 3.4625 10.871C4.4375 11.846 5.61667 12.3335 7 12.3335L7.4 12.5335L5.6 10.7335L7 9.3335L11 13.3335L7 17.3335Z" fill="#A6ECA4"/>
</svg>
