<svg width="24" height="24" viewBox="0 0 24 24" fill="none" xmlns="http://www.w3.org/2000/svg">
<path d="M9.59922 16.8H14.3992V15C14.3992 14.34 14.1642 13.775 13.6942 13.305C13.2242 12.835 12.6592 12.6 11.9992 12.6C11.3392 12.6 10.7742 12.835 10.3042 13.305C9.83422 13.775 9.59922 14.34 9.59922 15V16.8ZM7.19922 18V16.8H8.39922V15C8.39922 14.39 8.54172 13.8175 8.82672 13.2825C9.11172 12.7475 9.50922 12.32 10.0192 12C9.50922 11.68 9.11172 11.2525 8.82672 10.7175C8.54172 10.1825 8.39922 9.61 8.39922 9V7.2H7.19922V6H16.7992V7.2H15.5992V9C15.5992 9.61 15.4567 10.1825 15.1717 10.7175C14.8867 11.2525 14.4892 11.68 13.9792 12C14.4892 12.32 14.8867 12.7475 15.1717 13.2825C15.4567 13.8175 15.5992 14.39 15.5992 15V16.8H16.7992V18H7.19922Z" fill="#7F7AFF"/>
<rect x="0.5" y="0.5" width="23" height="23" rx="11.5" stroke="#7F7AFF"/>
</svg>
