<svg xmlns="http://www.w3.org/2000/svg" fill="currentColor" viewBox="0 0 99.999465 67.666001" stroke="none">
   <path d="m 54.637898,67.599421 c -0.515081,-0.04095 -0.597311,-0.08885 -0.710674,-0.414052 -0.07051,-0.20226 -0.186669,-0.367745 -0.258136,-0.367745 -0.07147,0 -0.331697,-0.303871 -0.578292,-0.67527 -1.054655,-1.588427 -3.171186,-2.719367 -3.171186,-1.694483 0,0.141501 -0.0907,0.292079 -0.201549,0.334618 -0.286893,0.110094 -1.726571,-0.163705 -2.587989,-0.492181 l -0.731593,-0.278971 0.07738,-0.930097 0.07738,-0.930099 -0.842482,-0.819128 c -1.068046,-1.038454 -3.109751,-2.389606 -5.273828,-3.490103 -1.825465,-0.928304 -2.574596,-1.157756 -5.484189,-1.679772 -3.353299,-0.60162 -4.070534,-0.834953 -4.539765,-1.476887 -0.403825,-0.552454 -0.308945,-1.516246 0.34853,-3.540353 0.308401,-0.949442 0.708176,-2.315578 0.88839,-3.035858 0.180214,-0.72028 0.496855,-1.870858 0.703648,-2.55684 0.285857,-0.948262 0.380844,-1.52108 0.396258,-2.389615 0.0188,-1.059704 -0.0023,-1.166797 -0.291539,-1.479828 -0.487717,-0.527828 -1.999782,-1.49134 -2.619202,-1.668997 -1.803308,-0.517211 -5.242989,-3.395317 -6.095128,-5.100015 -1.09942,-2.199381 -1.274697,-3.977461 -0.696111,-7.061595 0.102325,-0.545465 -0.09965,-0.663416 -0.761823,-0.444879 -1.003379,0.331145 -2.596384,1.581134 -4.552706,3.572389 -1.75584,1.787191 -1.998313,2.088331 -2.544624,3.160303 -0.332119,0.651683 -0.774805,1.437443 -0.983747,1.746135 -0.549558,0.811919 -2.982131,3.270418 -4.030281,4.073236 C 9.6658886,40.349006 9.2257107,40.79287 9.159407,40.98307 9.095031,41.167753 8.5678818,41.976841 7.9879767,42.781044 6.07436,45.434813 5.0262453,46.436853 3.8360455,46.750458 3.5605993,46.823028 3.0896288,47.018091 2.789447,47.183919 1.9171479,47.665793 1.621551,47.600188 0.7533921,46.73203 L 0,45.978637 0.0544238,45.322374 c 0.0381577,-0.460127 0.16641157,-0.822059 0.42913206,-1.211009 0.20609065,-0.305112 0.58376374,-0.940117 0.83927484,-1.411123 0.4302521,-0.79312 2.1417173,-3.036359 2.6184042,-3.431974 0.1141354,-0.09473 0.327486,-0.571736 0.4741223,-1.060032 0.3591256,-1.195892 1.9126917,-4.359205 2.8470491,-5.797054 1.0708156,-1.64784 1.9958747,-2.585409 2.9950067,-3.03551 0.445889,-0.200867 0.95102,-0.493056 1.122515,-0.649309 0.424096,-0.3864 2.079315,-1.3805 3.367545,-2.0225 1.237008,-0.616471 2.821088,-1.141498 9.259108,-3.068837 0.849978,-0.254457 1.561204,-0.632785 3.99579,-2.125507 1.510433,-0.926096 2.75951,-1.446651 4.547268,-1.895084 2.332837,-0.585156 4.189308,-0.694945 6.483525,-0.383421 2.066826,0.280646 4.384032,0.464481 4.774292,0.378766 0.234672,-0.05154 0.3769,-0.178398 0.427918,-0.381668 0.08985,-0.357995 0.106197,-0.359453 1.318902,-0.117657 1.362501,0.271657 4.404891,0.3692 6.236194,0.199942 1.622031,-0.149917 6.427868,-0.906944 7.296349,-1.149339 0.763326,-0.213046 2.283679,-1.0151 3.129284,-1.650837 1.033504,-0.777002 1.602774,-1.420193 2.674574,-3.021876 0.50133,-0.749179 1.105317,-1.586647 1.342194,-1.861039 0.236879,-0.274393 0.634197,-0.891777 0.882931,-1.371963 0.405612,-0.783047 0.529403,-0.9145021 1.200585,-1.2749139 0.591519,-0.317634 0.899455,-0.4025802 1.469421,-0.4053526 0.525915,-0.0026 0.740652,-0.054515 0.793403,-0.191989 0.07639,-0.199062 -0.381688,-0.8113732 -1.555418,-2.0791449 -0.809797,-0.874677 -0.757623,-1.03796 0.263235,-0.8238325 l 0.710958,0.1491257 0.428849,-0.415658 0.42885,-0.4156568 1.24611,0.4001091 c 0.685362,0.2200611 1.376848,0.3815915 1.536639,0.3589567 0.3145,-0.04455 0.312547,-0.027387 0.156243,-1.3735167 L 73.712387,3.4747265 74.1645,3.3899145 c 0.248661,-0.046655 0.703409,-0.047135 1.010547,-0.00107 0.535233,0.080265 0.578705,0.06244 1.046295,-0.4291035 l 0.487859,-0.5128478 1.248577,0.085995 c 1.201751,0.082773 1.254861,0.075601 1.41617,-0.1910978 0.09218,-0.1524023 0.444902,-0.4190022 0.783835,-0.5924464 0.682586,-0.3493166 1.566424,-1.17292035 1.566424,-1.45968528 0,-0.10152006 0.05687,-0.21973753 0.126361,-0.26269062 0.229677,-0.14194748 1.420973,0.29903204 2.144673,0.7938897 0.458544,0.3135481 0.924716,0.5185902 1.309601,0.576019 1.200782,0.1791673 2.186962,0.8482785 2.350998,1.5951225 0.06438,0.2931298 0.278059,0.4888411 1.034735,0.947729 1.130717,0.685728 2.293189,1.8235673 3.323351,3.2529317 1.847969,2.5640803 2.663651,3.61452 3.363936,4.332099 0.413574,0.423787 0.910668,1.027094 1.104651,1.340682 0.193985,0.313587 0.935303,1.111928 1.647375,1.77409 1.343391,1.249233 1.576025,1.583051 1.800147,2.583132 0.105535,0.470897 0.09381,0.728058 -0.05613,1.232991 -0.104209,0.350899 -0.189465,0.83294 -0.189465,1.071205 0,0.754857 -1.365387,1.782809 -1.683772,1.267653 -0.119215,-0.192895 -0.561258,-0.147236 -0.561258,0.05797 0,0.100481 -0.115863,0.244704 -0.257467,0.32049 -0.354014,0.189463 -1.910244,0.169003 -2.243984,-0.02951 -0.149681,-0.08902 -0.430665,-0.510787 -0.624403,-0.93724 -0.284465,-0.626165 -0.419617,-0.789604 -0.702322,-0.849318 -0.192539,-0.04067 -0.434259,-0.124269 -0.537156,-0.185785 -0.102897,-0.06152 -0.579966,-0.339023 -1.060153,-0.61669 -0.480187,-0.277667 -1.013382,-0.614815 -1.184877,-0.749219 -0.631657,-0.495039 -7.407185,-1.251705 -8.063428,-0.900495 -0.141261,0.0756 -0.548133,0.739288 -0.90929,1.48323 -0.359497,0.740523 -0.764627,1.466352 -0.900288,1.612954 -0.410564,0.443675 -1.826942,3.706908 -2.672273,6.156733 -0.817433,2.368967 -1.0692,3.392252 -1.288851,5.238404 -0.124335,1.045078 -0.45695,3.44873 -0.578172,4.17825 -0.03995,0.240404 -0.416471,0.763952 -1.053203,1.464456 -0.629251,0.692276 -0.965045,1.157993 -0.919853,1.275759 0.03915,0.102014 1.190855,1.245479 2.559355,2.541042 1.925986,1.823334 2.740032,2.504644 3.602829,3.01536 1.330205,0.787388 1.44,0.901561 1.52655,1.587416 0.03677,0.291357 0.240586,0.90101 0.452932,1.354785 0.591982,1.265035 0.563511,1.399134 -0.884833,4.16748 -0.699006,1.336071 -1.430593,2.818678 -1.625747,3.294681 -0.195154,0.476005 -0.516574,1.149514 -0.714266,1.496687 -0.197693,0.347175 -0.480704,0.993102 -0.628913,1.435398 -0.476638,1.422405 -0.726634,1.661552 -2.432884,2.327316 -1.845873,0.720242 -2.968472,1.275833 -3.605942,1.784634 -0.567218,0.452732 -1.487979,0.75029 -2.450302,0.791856 l -0.678846,0.02932 -0.03859,-0.68041 c -0.05557,-0.979906 0.397944,-2.351203 0.811958,-2.455114 0.435037,-0.109185 1.308405,0.03348 1.747451,0.285463 0.355978,0.204305 0.405185,0.204298 0.940449,-1.2e-4 1.290001,-0.492658 1.695385,-0.890843 3.426909,-3.366068 0.371947,-0.531704 0.510112,-1.204823 0.2473,-1.204823 -0.105625,0 -0.837983,0.252566 -1.62746,0.561258 -0.789479,0.308691 -1.565991,0.561344 -1.725584,0.561451 -0.159592,1.06e-4 -0.486608,0.107405 -0.726701,0.238454 -0.240094,0.131043 -0.997792,0.516603 -1.683773,0.8568 -0.685982,0.340199 -1.858412,1.018047 -2.605401,1.506329 l -1.358161,0.887785 -2.196469,-0.07725 c -2.130543,-0.07494 -2.235693,-0.06683 -3.503254,0.269897 -1.21222,0.322029 -1.361138,0.336036 -2.057944,0.193572 -1.009836,-0.20647 -1.811314,-0.56999 -1.811314,-0.821549 0,-0.111432 0.426695,-0.619726 0.94821,-1.129529 0.87889,-0.85915 0.987036,-0.926913 1.479282,-0.926913 0.369144,0 0.678989,0.100714 1.016192,0.330314 1.149594,0.782752 1.937435,0.829842 2.935689,0.175468 0.298542,-0.195699 1.300501,-0.591754 2.226576,-0.88012 2.234476,-0.695786 6.346082,-2.619555 7.063699,-3.305017 0.992032,-0.947581 0.880976,-1.846628 -0.428695,-3.470454 -1.87471,-2.3244 -6.794881,-7.186438 -8.426674,-8.327111 -1.232047,-0.861236 -1.487591,-0.916298 -4.093238,-0.881954 -2.162508,0.0285 -2.463322,0.0038 -4.17825,-0.34294 -2.491196,-0.503712 -3.864984,-0.916417 -5.277882,-1.585554 -1.632565,-0.773168 -3.349062,-1.079707 -4.404617,-0.786595 -0.846636,0.235101 -0.976346,0.470935 -0.8819,1.603445 0.0732,0.877679 0.05368,1.022992 -0.181751,1.353634 -0.296972,0.417057 -1.377693,2.672882 -2.224026,4.642285 -1.361422,3.168003 -2.036247,5.324454 -2.036071,6.506424 1.41e-4,0.959836 0.556256,2.066651 1.490732,2.96695 0.692256,0.666939 0.794907,0.72116 1.650432,0.871773 1.356612,0.238829 2.785249,0.7207 3.219139,1.085794 0.483571,0.406899 0.684383,0.795862 0.943551,1.82761 0.113381,0.451404 0.298378,0.900795 0.411089,0.998647 0.112705,0.09786 0.83012,0.602538 1.594245,1.121523 0.97111,0.659568 1.964431,1.507981 3.299884,2.818493 1.314273,1.289729 2.02781,1.900633 2.286232,1.957394 0.353798,0.07771 1.942324,1.460008 1.942324,1.690169 0,0.0568 -0.203295,0.188223 -0.451766,0.292042 -0.431922,0.180468 -1.264101,0.210655 -2.687552,0.09749 z M 78.160514,52.409025 c 0.315829,-0.584121 0.763085,-1.327539 0.993902,-1.652039 0.433661,-0.609674 0.825654,-1.734266 0.820985,-2.355332 -0.0026,-0.350057 -0.779561,-1.710181 -1.426645,-2.497539 -0.184535,-0.224539 -0.499612,-0.433524 -0.726663,-0.481984 -0.220476,-0.04706 -1.018247,-0.420112 -1.772826,-0.829015 -1.474906,-0.799245 -1.880936,-0.909588 -2.100775,-0.570908 -0.113578,0.174968 -0.02584,0.44821 0.46049,1.434325 0.687544,1.394081 2.032796,3.712532 2.604949,4.489452 0.42064,0.571182 0.438735,0.719237 0.281114,2.299984 -0.0963,0.965805 -0.0336,1.42585 0.176647,1.295914 0.06303,-0.03895 0.372992,-0.548736 0.688822,-1.132858 z m 9.902572,-35.813087 c -0.05153,-0.265022 -1.128543,-0.492717 -2.888092,-0.610582 -0.950504,-0.06367 -1.320684,-0.04712 -1.388166,0.06208 -0.0506,0.08189 -0.07237,0.166335 -0.04834,0.187652 0.02402,0.02132 0.883175,0.09462 1.909235,0.162903 1.170723,0.0779 1.88302,0.176515 1.912433,0.264753 0.07761,0.232831 0.549025,0.170222 0.502941,-0.06679 z" style="stroke-width:1.2992" />
</svg>
