<?xml version="1.0" encoding="UTF-8" standalone="no"?>
<svg
   width="100%"
   height="100%"
   viewBox="0 0 438 372"
   version="1.1"
   xml:space="preserve"
   style="fill-rule:evenodd;clip-rule:evenodd;stroke-linecap:round;stroke-linejoin:round;stroke-miterlimit:2;"
   id="svg42"
   sodipodi:docname="logo.svg"
   inkscape:version="1.2.2 (b0a8486541, 2022-12-01)"
   xmlns:inkscape="http://www.inkscape.org/namespaces/inkscape"
   xmlns:sodipodi="http://sodipodi.sourceforge.net/DTD/sodipodi-0.dtd"
   xmlns="http://www.w3.org/2000/svg"
   xmlns:svg="http://www.w3.org/2000/svg"><defs
   id="defs46" /><sodipodi:namedview
   id="namedview44"
   pagecolor="#ffffff"
   bordercolor="#000000"
   borderopacity="0.25"
   inkscape:showpageshadow="2"
   inkscape:pageopacity="0.0"
   inkscape:pagecheckerboard="0"
   inkscape:deskcolor="#d1d1d1"
   showgrid="false"
   inkscape:zoom="2.1102151"
   inkscape:cx="124.3949"
   inkscape:cy="65.159234"
   inkscape:window-width="1920"
   inkscape:window-height="1011"
   inkscape:window-x="0"
   inkscape:window-y="0"
   inkscape:window-maximized="1"
   inkscape:current-layer="svg42" />
    <g
   id="Artboard1"
   transform="matrix(0.87406,0,0,0.742481,0,0)">
        <rect
   x="0"
   y="0"
   width="500"
   height="500"
   style="fill:none;"
   id="rect2" />
        <clipPath
   id="_clip1">
            <rect
   x="0"
   y="0"
   width="500"
   height="500"
   id="rect4" />
        </clipPath>
        <g
   clip-path="url(#_clip1)"
   id="g39">
            <g
   transform="matrix(1.20687,0,0,1.42075,-215.852,-52.7125)"
   id="g37">
                <g
   transform="matrix(1,0,0,1,559.727,337.598)"
   id="g11">
                    <g
   id="g9">
                        <path
   d="M0,-240.926C3.496,-239.613 3.601,-236.617 3.075,-232.842C0.722,-234.058 -1.707,-234.833 -3.419,-236.394C-4.307,-237.204 -3.923,-239.407 -4.113,-240.981C-2.733,-240.987 -1.208,-241.38 0,-240.926M17.255,-191.691C17.968,-193.142 19.451,-194.267 20.778,-195.297C20.948,-195.428 22.65,-194.25 22.953,-193.426C24.093,-190.323 21.585,-188.821 19.729,-186.852C17.011,-188.647 16.28,-189.707 17.255,-191.691M-133.088,47.97C-135.466,44.041 -137.503,40.274 -139.929,36.777C-142.32,33.329 -144.984,30.048 -147.766,26.902C-149.191,25.291 -151.115,24.11 -152.85,22.783C-156.573,19.935 -160.305,17.098 -164.062,14.295C-166.929,12.154 -169.741,9.917 -172.749,7.992C-183.106,1.365 -193.852,-4.704 -203.845,-11.833C-212.059,-17.693 -218.276,-25.589 -219.587,-36.117C-220.506,-43.5 -219.687,-50.857 -218.414,-58.219C-217.089,-65.876 -215.726,-73.661 -215.742,-81.388C-215.774,-96.052 -221.463,-108.328 -234.22,-116.402C-237.702,-118.606 -241.899,-119.672 -245.746,-121.313C-248.336,-122.418 -250.886,-123.616 -253.287,-125.218C-242.895,-128.089 -233.53,-125.727 -224.104,-119.86C-216.405,-114.886 -211.923,-103.02 -211.923,-103.02C-210.279,-97.063 -208.797,-91.691 -207.33,-86.37L-207.33,-82.12C-208.805,-71.627 -210.088,-61.106 -211.722,-50.639C-214.066,-35.618 -209.076,-23.769 -196.43,-15.502C-185.965,-8.661 -175.173,-2.315 -164.447,4.117C-162.244,5.437 -159.722,6.263 -157.285,7.143C-154.892,8.009 -153.943,6.622 -154.502,4.562C-155.229,1.886 -156.352,-0.697 -157.462,-3.25C-160.613,-10.493 -165.666,-15.402 -173.501,-17.788C-183.542,-20.847 -192.418,-26.342 -200.933,-32.452C-205.715,-35.883 -207.859,-40.027 -206.117,-45.855C-203.854,-53.421 -201.638,-61.002 -199.385,-68.572C-198.386,-71.926 -197.281,-75.249 -196.36,-78.623C-196.037,-79.811 -196.12,-81.111 -195.982,-82.789C-190.359,-80.962 -184.814,-78.935 -179.144,-77.357C-155.455,-70.765 -131.683,-70.842 -107.901,-76.894C-105.583,-77.484 -103.349,-78.408 -101.085,-79.206C-99.303,-79.834 -98.742,-80.805 -99.927,-82.583C-100.919,-84.071 -101.728,-85.703 -102.439,-87.348C-103.107,-88.893 -103.543,-90.538 -104.065,-92.095C-101.997,-119.483 -62.204,-115.527 -62.204,-115.527C-57.908,-112.26 -53.894,-109.207 -49.583,-105.928C-40.993,-111.883 -36.011,-120.466 -34.599,-131.244C-32.852,-144.581 -34.984,-157.408 -39.99,-169.76C-45.94,-184.444 -47.585,-199.315 -42.869,-214.65C-42.656,-215.343 -42.63,-216.292 -42.936,-216.916C-48.23,-227.694 -47.867,-238.322 -42.256,-248.855C-42.167,-249.021 -42.174,-249.238 -42.002,-250.111C-43.656,-249.191 -45.072,-248.63 -46.223,-247.729C-55.044,-240.819 -60.258,-231.672 -62.276,-220.758C-66.038,-201.134 -60.254,-178.94 -56.53,-167.588L-59.441,-170.537C-59.824,-171.619 -60.166,-172.718 -60.607,-173.775C-61.107,-174.974 -61.709,-176.132 -62.255,-177.312C-67.32,-188.259 -70.633,-199.687 -70.023,-211.822C-69.382,-224.618 -65.905,-236.71 -56.548,-245.94C-52.312,-250.118 -46.865,-253.36 -41.46,-255.977C-37.048,-258.113 -31.889,-258.72 -27.042,-259.931C-26.09,-260.169 -25.03,-260.217 -24.063,-260.07C-23.376,-259.965 -22.763,-259.383 -22.116,-259.014C-22.533,-258.425 -22.903,-257.793 -23.387,-257.265C-23.638,-256.99 -24.089,-256.899 -24.45,-256.726C-35.806,-251.288 -42.241,-238.801 -38.688,-226.841C-36.162,-218.343 -31.129,-211.23 -21.935,-208.181C-20.162,-207.594 -18.538,-206.213 -17.152,-204.88C-13.621,-201.481 -10.285,-197.88 -6.83,-194.401C-4.025,-191.577 -2.688,-188.172 -2.239,-184.249C-1.356,-176.549 5.056,-172.833 12.27,-175.573C13.279,-175.957 14.611,-175.706 15.75,-175.502C20.223,-174.7 22.989,-176 25.04,-180.137C26.462,-183.005 27.708,-185.96 29.14,-188.823C30.735,-192.012 29.99,-194.946 28.695,-198.034C23.936,-209.382 19.231,-220.755 14.704,-232.197C13.689,-234.76 13.662,-237.698 12.843,-240.361C11.917,-243.367 11.099,-246.59 9.365,-249.125C6.269,-253.654 2.575,-257.785 -0.975,-261.993C-4.039,-265.627 -4.444,-267.208 -1.98,-271.438C1.723,-277.799 3.131,-284.582 2.672,-292.497C-3.636,-290.009 -8.523,-286.506 -12.555,-281.588C-16.819,-276.386 -16.814,-270.443 -15.926,-264.119C-19.58,-266.022 -21.378,-269.626 -21.818,-275.69C-29.897,-276.913 -38.077,-277.218 -46.139,-275.576C-65.063,-271.722 -80.349,-261.726 -93.17,-247.44C-102.734,-236.783 -109.173,-224.259 -115.792,-211.794C-117.858,-207.905 -119.978,-204.044 -122.053,-200.159C-122.512,-199.301 -122.887,-198.397 -123.524,-197.033L-133.469,-188.402C-134.665,-187.549 -135.771,-186.727 -136.835,-185.944C-167.2,-166.623 -204.855,-171.947 -204.855,-171.947L-204.857,-171.946C-221.324,-174.406 -237.097,-178.587 -253.348,-174.388C-277.805,-168.069 -293.007,-152.846 -298.677,-128.011C-302.08,-113.107 -296.873,-100.82 -288.56,-89.051C-282.612,-80.632 -274.202,-75.019 -265.976,-69.503C-251.383,-59.718 -245.636,-45.953 -245.113,-29.195C-245.069,-27.793 -244.985,-26.382 -245.093,-24.989C-245.622,-18.154 -242.076,-13.797 -236.388,-10.891C-231.579,-8.432 -226.366,-6.663 -221.816,-3.817C-212.069,2.279 -202.519,8.711 -193.148,15.37C-190.471,17.272 -188.455,20.273 -186.562,23.059C-184.947,25.435 -183.087,26.458 -180.312,26.066C-178.432,25.801 -176.545,25.544 -174.652,25.415C-170.213,25.11 -168.012,28.282 -170.186,32.131C-171.438,34.349 -171.055,35.989 -169.725,37.885C-167.429,41.155 -165.256,44.513 -163.085,47.869C-161.685,50.035 -159.844,51.326 -157.188,51.386C-149.168,51.571 -141.215,51.34 -133.088,47.97"
   style="fill-rule:nonzero;stroke:black;stroke-opacity:0;stroke-width:9.63px;"
   id="path7" />
                    </g>
                </g>
                <g
   transform="matrix(1,0,0,1,252.705,343.125)"
   id="g17">
                    <g
   id="g15">
                        <path
   d="M0,-163.359C-23.743,-165.181 -43.879,-157.692 -58.229,-138.34C-71.233,-120.804 -74.377,-101.392 -65.266,-80.842C-64.387,-78.861 -63.064,-77.077 -61.948,-75.202C-61.573,-75.332 -61.198,-75.461 -60.823,-75.59C-60.823,-77.421 -60.873,-79.252 -60.814,-81.079C-60.597,-87.868 -60.769,-94.705 -59.972,-101.427C-59.303,-107.072 -56.908,-112.331 -53.343,-117.554C-56.205,-100.937 -52.307,-85.358 -50.338,-69.623C-48.405,-54.161 -48.42,-38.779 -55.346,-24.272C-57.314,-20.15 -59.761,-16.256 -61.989,-12.258C-42.607,-23.089 -31.261,-38.659 -32.68,-61.926C-19.766,-42.243 -15.36,-21.325 -22.88,1.822C-21.461,0.142 -19.9,-1.437 -18.646,-3.232C-9.425,-16.426 -6.898,-31.268 -8.069,-46.982C-9.16,-61.626 -16.108,-73.845 -24.123,-85.618C-24.571,-86.277 -25.011,-86.945 -25.392,-87.643C-25.508,-87.856 -25.41,-88.184 -25.41,-89.257C-18.926,-85.034 -13.333,-79.923 -4.817,-78.615C-5.843,-80.877 -6.397,-82.642 -7.368,-84.137C-10.367,-88.755 -13.716,-93.155 -16.576,-97.854C-21.004,-105.13 -23.185,-113.123 -22.359,-121.653C-21.758,-127.853 -19.015,-133.214 -14.055,-137.132C-9.175,-140.986 -4.11,-144.573 2.483,-144.928C3.158,-144.965 4.051,-145.714 4.394,-146.368C6.937,-151.226 9.366,-156.142 12.021,-161.421C8.196,-162.054 4.124,-163.043 0,-163.359"
   style="fill-rule:nonzero;stroke:black;stroke-opacity:0;stroke-width:9.63px;"
   id="path13" />
                    </g>
                </g>
                <g
   transform="matrix(1,0,0,1,406.536,65.54)"
   id="g23">
                    <g
   id="g21">
                        <path
   d="M0,51.141C-9.381,53.174 -18.623,52.874 -27.725,48.406C-26.883,49.54 -26.148,50.777 -25.181,51.791C-19.186,58.077 -11.401,59.944 -3.142,60.488C4.925,61.018 12.566,59.424 19.712,55.314C19.563,63.718 2.744,74.061 -13.149,75.779C-13.232,76.045 -13.315,76.31 -13.399,76.575C-11.045,77.225 -8.728,78.224 -6.333,78.471C9.867,80.134 21.85,73.637 29.399,59.085C35.161,47.981 40.606,36.726 48.343,26.758C61.47,9.846 77.628,-2.764 98.384,-8.826C109.178,-11.979 120.251,-12.878 131.359,-10.837C134.171,-10.32 134.71,-12.212 135.582,-13.58C135.91,-14.096 134.842,-16.032 133.947,-16.718C122.162,-25.75 108.71,-28.993 94.097,-27.588C88.432,-27.043 82.834,-25.82 77.18,-25.121C70.04,-24.239 63.001,-24.567 56.35,-27.757C55.938,-27.954 55.481,-28.055 54.336,-28.438C57.755,-22.143 63.435,-20.135 68.779,-17.225C65.234,-16.694 61.686,-16.188 58.146,-15.628C51.923,-14.643 45.722,-13.519 39.483,-12.655C34.221,-11.926 29.099,-12.662 24.239,-14.923C23.883,-15.089 23.481,-15.175 23.092,-15.242C22.919,-15.273 22.723,-15.165 21.896,-14.963C29.088,-7.829 37.221,-3.956 47.746,-4.022C33.874,2.185 20.872,8.55 5.794,7.719C-1.562,7.313 -8.043,4.842 -14.017,0.73C-14.592,0.335 -15.118,-0.131 -15.689,-0.531C-15.832,-0.63 -16.066,-0.597 -16.985,-0.728C-16.448,0.744 -16.181,2.013 -15.564,3.08C-9.762,13.11 -0.548,17.891 10.544,18.935C16.621,19.508 22.818,18.796 28.979,18.663C21.571,24.556 12.977,28.557 3.303,29.728C-6.461,30.91 -15.856,29.378 -24.266,23.621L-24.92,24.135C-24.504,25.205 -24.259,26.386 -23.646,27.327C-18.442,35.302 -10.644,39.002 -1.529,40.017C6.975,40.964 15.428,40.485 23.598,37.315C17.561,45.036 9.323,49.12 0,51.141"
   style="fill-rule:nonzero;stroke:black;stroke-opacity:0;stroke-width:9.63px;"
   id="path19" />
                    </g>
                </g>
                <g
   transform="matrix(1,0,0,1,490.309,229.356)"
   id="g29">
                    <g
   id="g27">
                        <path
   d="M0,100.039C2.589,97.029 5.858,95.718 9.578,95.985C15.859,96.435 19.84,94.007 21.983,87.989C22.794,85.711 24.534,83.689 26.123,81.777C31.048,75.849 35.932,69.87 41.185,64.24C43.518,61.738 46.509,59.684 49.533,58.032C54.188,55.49 57.062,52.035 56.835,46.621C56.588,40.711 55.325,35.344 49.09,32.534C40.24,28.547 32.8,22.423 25.409,16.27C21.257,12.812 17.116,9.339 13.023,5.811C8.436,1.856 3.004,-0.429 -2.729,-1.948C-9.834,-3.83 -20.798,-0.124 -24.463,5.265C-29.527,12.712 -28.363,18.664 -21.439,26.948C-17.203,32.018 -11.007,33.906 -4.937,35.613C4.109,38.158 13.345,40.063 22.305,42.863C26.503,44.175 29.803,45.166 32.145,40.394C32.383,39.907 33.019,39.592 33.513,39.261C33.804,39.065 34.179,38.996 33.99,39.067C33.035,43.432 32.275,48.016 30.964,52.436C30.306,54.656 28.895,56.785 27.391,58.596C23.874,62.828 20.112,66.858 16.419,70.942C14.192,73.405 11.521,75.168 8.082,75.044C5.602,74.955 4.746,76.334 4.293,78.367C4.054,79.439 3.944,80.575 3.502,81.559C3.099,82.456 2.365,83.81 1.706,83.853C0.566,83.927 -1.148,83.49 -1.713,82.654C-4.432,78.63 -8.993,77.896 -12.892,76.041C-14.591,75.232 -15.986,76.032 -17.005,77.883C-21.082,85.293 -22.582,93.226 -22.359,101.59C-22.312,103.334 -21.57,103.869 -19.937,103.71C-14.661,103.195 -9.363,102.857 -4.109,102.171C-2.65,101.98 -0.946,101.139 0,100.039"
   style="fill-rule:nonzero;stroke:black;stroke-opacity:0;stroke-width:9.63px;"
   id="path25" />
                    </g>
                </g>
                <g
   transform="matrix(1,0,0,1,579.268,238.321)"
   id="g35">
                    <g
   id="g33">
                        <path
   d="M0,63.489C4.265,59.838 5.289,55.76 3.738,50.136C0.312,37.711 0.1,24.825 -0.219,12.017C-0.283,9.45 0.28,6.84 0.774,4.292C2.689,-5.579 -0.605,-10.759 -10.165,-13.825C-21.292,-17.395 -32.297,-21.347 -43.336,-25.186C-44.813,-25.699 -46.185,-26.518 -47.12,-26.964C-49.157,-22.176 -50.589,-17.427 -53.088,-13.329C-55.597,-9.216 -59.17,-5.751 -62.333,-1.934C-58.037,1.617 -52.729,1.193 -47.832,1.923C-41.021,2.937 -34.126,3.386 -27.238,4.08C-25.55,1.421 -23.748,-1.413 -21.947,-4.248C-21.704,-4.096 -21.461,-3.945 -21.218,-3.792C-21.376,-1.546 -21.966,0.777 -21.585,2.927C-21.096,5.691 -20.277,8.604 -18.792,10.938C-16.204,15.006 -15.464,19.491 -14.839,24.02C-13.979,30.254 -13.417,36.53 -12.782,42.794C-12.43,46.273 -13.388,49.366 -15.996,51.777C-17.611,53.269 -17.463,54.649 -16.143,56.183C-15.623,56.788 -15.01,57.428 -14.807,58.154C-14.586,58.948 -14.454,60.229 -14.894,60.63C-15.489,61.173 -16.997,61.557 -17.534,61.181C-20.154,59.348 -22.703,60.275 -25.301,60.968C-26.072,61.175 -26.827,61.446 -27.592,61.678C-32.589,63.201 -32.907,63.273 -31.724,68.389C-30.29,74.589 -28.533,80.75 -26.368,86.729C-25.065,90.329 -23.867,90.453 -20.75,88.194C-17.269,85.671 -13.824,83.048 -10.679,80.129C-9.072,78.638 -7.712,76.554 -7.015,74.479C-5.569,70.175 -3.43,66.427 0,63.489"
   style="fill-rule:nonzero;stroke:black;stroke-opacity:0;stroke-width:9.63px;"
   id="path31" />
                    </g>
                </g>
            </g>
        </g>
    </g>
<path
   style="fill:#ffffff;stroke-width:0.473885"
   d="m 232.60746,369.93395 c -1.37181,-0.86583 -9.95571,-13.16138 -10.7699,-15.42678 -0.18837,-0.52411 0.11747,-2.14319 0.72463,-3.83614 0.90735,-2.52996 0.96971,-3.12446 0.45752,-4.36101 -1.04197,-2.51553 -2.68713,-2.92987 -9.33022,-2.34983 -3.15481,0.27547 -4.64892,0.21527 -5.61816,-0.22635 -0.72622,-0.33088 -2.76534,-2.54947 -4.53137,-4.93019 -2.77947,-3.74688 -3.9596,-4.85616 -8.78163,-8.25444 -11.71192,-8.25389 -27.19439,-18.19441 -31.74177,-20.3798 -2.60637,-1.25257 -6.55146,-3.13686 -8.76688,-4.18729 -4.93742,-2.34108 -7.42861,-4.42581 -9.21851,-7.71445 -1.31664,-2.41909 -1.38364,-2.85329 -1.74475,-11.30633 -0.41787,-9.78206 -1.34756,-15.13784 -3.66916,-21.13727 -3.85709,-9.96741 -9.38498,-16.35026 -21.08479,-24.34582 -12.40269,-8.4759 -17.00673,-12.80733 -22.648421,-21.30737 -8.664379,-13.05417 -11.582473,-24.85043 -9.132005,-36.9157 0.975518,-4.80312 4.016266,-13.90796 5.909679,-17.69522 8.217407,-16.43669 22.745617,-27.43917 42.869487,-32.46582 3.59127,-0.89704 6.51818,-1.24839 12.08647,-1.45084 8.48541,-0.30851 12.37444,0.0637 29.14156,2.7889 11.17168,1.81579 12.41451,1.9254 21.79872,1.92252 19.38373,-0.006 35.71864,-3.42176 50.23185,-10.50405 7.52093,-3.67014 9.78028,-5.17737 16.87837,-11.25973 5.15876,-4.42056 6.18956,-5.54599 7.51383,-8.20368 3.13056,-6.28273 15.40824,-28.81264 17.94795,-32.935031 8.14507,-13.220837 17.21734,-23.391236 28.14024,-31.546415 13.36493,-9.978421 28.70808,-15.762498 43.48904,-16.394533 6.88252,-0.294297 15.12314,0.441027 15.73529,1.404085 0.19926,0.313492 0.36556,1.148418 0.36955,1.855392 0.0138,2.430297 1.87034,6.394088 3.81997,8.155468 1.03215,0.932486 2.01328,1.69543 2.18027,1.69543 0.167,0 0.16394,-1.503042 -0.007,-3.340092 -0.41765,-4.493659 0.37733,-9.050866 2.16344,-12.401949 2.51215,-4.713267 9.81907,-10.880071 15.90417,-13.4225865 l 1.6799,-0.7019079 -0.30205,4.6262614 c -0.41111,6.296645 -1.36058,9.908925 -4.12797,15.705003 -1.31129,2.746426 -2.34824,5.592348 -2.34824,6.444823 0,1.757593 0.9821,3.21937 6.8905,10.256004 7.51668,8.952015 9.39499,12.617305 11.29391,22.038624 0.70556,3.500563 3.10965,9.676696 15.10248,38.798364 2.79856,6.79561 2.72232,7.87259 -1.12369,15.87516 -3.14457,6.54303 -5.04982,8.94033 -7.20211,9.06208 -2.06579,0.11687 -10.58472,0.45211 -13.45933,0.52967 -2.58321,0.0697 -3.20444,-0.0978 -4.97579,-1.34143 -2.60524,-1.82911 -3.96968,-4.34701 -4.8506,-8.95114 -1.12575,-5.88378 -2.07524,-7.33844 -10.13097,-15.52113 -7.21921,-7.332983 -7.4265,-7.497738 -12.65791,-10.06097 -4.57618,-2.242198 -5.73924,-3.061001 -8.33307,-5.866544 -2.96795,-3.210228 -5.19628,-7.026147 -6.82347,-11.684928 -1.08629,-3.110147 -1.45145,-10.04654 -0.70814,-13.451487 1.41448,-6.479401 5.7555,-12.627269 11.62935,-16.469795 2.08288,-1.362567 4.39835,-3.036196 5.14549,-3.719176 1.30149,-1.189735 1.32135,-1.26986 0.47388,-1.911705 -1.32987,-1.0072 -3.7271,-0.845334 -10.68441,0.721434 -12.09509,2.723784 -23.18779,9.60337 -29.74363,18.446707 -6.97565,9.409638 -10.44609,22.536267 -9.83088,37.184423 0.42694,10.165451 2.61593,18.434861 8.18548,30.922631 1.41198,3.16589 2.56724,5.94815 2.56724,6.18281 0,0.23466 0.88203,1.26961 1.96006,2.29989 1.44112,1.37729 1.89441,1.62232 1.71211,0.92548 -0.13636,-0.52128 -0.93496,-3.29096 -1.77466,-6.15484 -2.00798,-6.84842 -4.01863,-16.72543 -4.74547,-23.31135 -0.82628,-7.48696 -0.37944,-21.800568 0.85725,-27.460223 2.02282,-9.257374 6.64173,-17.649054 13.08104,-23.765758 3.07228,-2.918366 7.3912,-5.883831 7.3912,-5.074956 0,0.14428 -0.50884,1.268168 -1.13075,2.497527 -2.08524,4.122002 -3.20733,8.611426 -3.46053,13.845395 -0.27827,5.752333 0.41457,9.779652 2.63747,15.331091 l 1.43539,3.584701 -1.12727,4.443798 c -3.2543,12.828845 -2.46251,25.886125 2.41978,39.904105 6.41497,18.41858 7.20819,21.83747 7.58636,32.69809 0.437,12.54986 -1.5189,21.23502 -6.48604,28.80122 -2.37612,3.61944 -8.08533,9.34655 -9.31732,9.34655 -0.3693,0 -3.46617,-2.12159 -6.88194,-4.71464 -7.33305,-5.56683 -7.71818,-5.67156 -17.6947,-4.81176 -19.30946,1.66414 -30.05896,8.71845 -32.71794,21.47101 -0.62849,3.01425 -0.62019,3.5723 0.0857,5.76637 0.42985,1.33603 1.62821,4.02333 2.66302,5.97178 l 1.88147,3.54265 -0.99339,0.80439 c -2.41817,1.95812 -15.56299,5.18606 -27.83679,6.83582 -7.40027,0.99469 -25.14498,1.15049 -32.14024,0.28218 -11.19057,-1.38905 -20.53803,-3.53661 -32.57957,-7.4851 -4.36565,-1.43152 -8.15081,-2.47096 -8.41147,-2.30986 -0.26066,0.16109 -0.47392,1.04941 -0.47392,1.97402 0,0.92461 -2.45236,9.90549 -5.44969,19.95751 -5.7689,19.34694 -6.18845,21.58159 -4.71571,25.11684 1.09688,2.63301 3.63534,5.00846 9.76063,9.13383 8.68449,5.849 17.31125,10.25037 24.57292,12.53711 7.58229,2.38771 12.51435,6.72283 16.09826,14.14984 2.46086,5.09971 3.80492,8.73132 3.80492,10.28078 0,3.19677 -5.43065,0.9634 -22.0524,-9.0691 -20.16277,-12.16978 -25.48365,-15.79549 -29.51407,-20.11123 -3.78306,-4.05086 -6.64515,-9.23448 -7.97765,-14.44856 -1.0332,-4.04292 -1.03955,-12.06974 -0.0146,-18.48152 1.87812,-11.74906 4.11418,-29.35566 4.11418,-32.39465 0,-2.49946 -0.58495,-5.41399 -2.42943,-12.10479 -5.07195,-18.39831 -11.37756,-26.08493 -25.42446,-30.99279 -3.47904,-1.21555 -5.03684,-1.47701 -9.84046,-1.65158 -5.78369,-0.21018 -11.38888,0.49699 -10.85003,1.36887 0.42503,0.6877 6.54428,3.66593 11.32883,5.51373 5.87683,2.26963 9.09063,3.95294 12.12422,6.35036 9.36351,7.3999 14.39555,16.92673 15.58799,29.51175 0.66666,7.03593 -0.0286,14.57742 -2.88934,31.33965 -1.45377,8.51836 -1.46935,20.15376 -0.034,25.40509 2.49736,9.1368 7.72257,15.8433 17.83958,22.89695 2.44694,1.70602 10.7828,7.04671 18.52416,11.8682 14.35392,8.93995 35.02153,23.80209 38.7673,27.87769 5.47739,5.9597 15.52162,20.8426 14.65274,21.71149 -0.19461,0.19461 -2.37901,0.91968 -4.8542,1.61125 -3.88569,1.08568 -5.66538,1.28699 -13.03029,1.47394 -7.90696,0.20071 -8.6389,0.14775 -10.02184,-0.7251 z M 424.24231,118.58981 c 2.70194,-2.80121 2.91732,-5.13963 0.66061,-7.17239 -0.97681,-0.87988 -1.0179,-0.87354 -2.71104,0.41788 -1.50702,1.14946 -3.04029,3.62363 -3.04029,4.90599 0,0.47627 2.8484,3.38865 3.3142,3.38865 0.16003,0 0.95946,-0.69306 1.77652,-1.54013 z M 405.40892,68.720854 c 0,-2.704194 -0.16099,-3.252953 -1.34205,-4.574795 -1.13644,-1.271898 -1.75356,-1.536142 -4.02803,-1.724758 l -2.68597,-0.22274 v 2.428108 c 0,2.953988 0.77035,3.860223 4.91084,5.77708 1.59954,0.740512 2.96158,1.356174 3.02674,1.368135 0.0652,0.01194 0.11847,-1.361003 0.11847,-3.05103 z"
   id="path221" /><path
   style="fill:#ffffff;stroke-width:0.473885"
   d="m 54.950148,322.0051 c 4.019932,-16.69602 3.824004,-28.58647 -0.707378,-42.92934 -1.562509,-4.9457 -6.448431,-15.38038 -9.077549,-19.38659 l -1.554964,-2.36942 -0.326997,5.79921 c -0.375461,6.65868 -0.906158,9.73052 -2.600372,15.05174 -3.408892,10.70671 -11.243558,20.36646 -22.70239,27.99091 -2.128245,1.41608 -4.010027,2.5747 -4.181737,2.5747 -0.17171,0 0.34924,-1.11956 1.157667,-2.4879 3.032213,-5.13233 7.077148,-14.00651 8.259144,-18.11974 3.886091,-13.52322 3.936281,-24.18785 0.235317,-50.00128 -2.464493,-17.18931 -2.992027,-24.43625 -2.353913,-32.3366 0.275265,-3.40799 0.628762,-6.4039 0.78555,-6.65759 0.156787,-0.25369 -0.01117,-0.36353 -0.373251,-0.24409 -0.959395,0.31647 -5.529612,9.61495 -6.355572,12.93093 -0.853982,3.42848 -1.643996,15.07282 -1.646291,24.26537 -9e-4,3.69869 -0.1766,6.833 -0.390392,6.96514 -1.091306,0.67446 -5.5560248,-8.96197 -7.4689106,-16.12053 -1.6957219,-6.34587 -2.1394067,-17.45355 -0.9358941,-23.43019 2.5287227,-12.55762 9.0688957,-24.38887 18.9820527,-34.33875 9.192147,-9.22621 19.007918,-14.44629 32.667452,-17.37273 6.539935,-1.40113 20.423729,-1.50833 27.75293,-0.21428 2.736688,0.48319 5.150802,1.04204 5.364695,1.24189 0.583025,0.54475 -7.058253,15.50218 -8.322489,16.29086 -0.588627,0.36721 -2.134474,0.80275 -3.435214,0.96787 -5.605561,0.71159 -15.942976,7.61243 -19.594344,13.08039 -3.072056,4.60044 -4.106737,8.55022 -4.034925,15.40288 0.104857,10.00614 2.265073,15.64928 10.884327,28.43312 4.770575,7.07559 7.588587,11.94427 7.160924,12.37194 -0.344586,0.34458 -5.319325,-1.34196 -8.163102,-2.76746 -1.563821,-0.7839 -4.837317,-2.80071 -7.274438,-4.4818 -2.437117,-1.68109 -4.729537,-3.17105 -5.094268,-3.31101 -1.598553,-0.61342 -0.420166,2.26379 3.218464,7.85838 7.178604,11.03749 11.386967,20.50554 13.500311,30.37326 1.31189,6.12555 1.179662,21.65996 -0.240767,28.28547 -2.217409,10.34297 -6.898226,20.52679 -12.156496,26.44829 -1.239025,1.39531 -1.257137,1.3997 -0.97718,0.23695 z"
   id="path223" /><path
   style="fill:#ffffff;stroke-width:0.473885"
   d="m 234.57325,112.55872 c -1.56382,-0.18329 -4.1228,-0.72078 -5.68663,-1.19441 l -2.84331,-0.86116 1.89554,-0.42282 c 10.13488,-2.26073 15.35151,-4.11662 21.07883,-7.49911 6.78067,-4.004594 10.98596,-8.527062 12.05115,-12.960098 0.38512,-1.602771 0.57512,-1.631957 -5.40768,0.830583 -6.13518,2.52525 -10.89603,3.320055 -17.99271,3.003813 -10.24044,-0.456343 -17.06846,-2.885915 -22.56764,-8.030125 -1.68441,-1.575688 -2.97796,-2.94951 -2.87454,-3.052931 0.10342,-0.10342 1.80127,0.353505 3.77298,1.015385 5.36729,1.801741 12.00852,2.448788 17.99348,1.753091 9.83723,-1.143494 18.27356,-4.237099 24.56394,-9.007603 2.91481,-2.210538 6.58219,-5.968131 6.58219,-6.744099 0,-0.186043 -1.54632,0.152795 -3.43627,0.752966 -5.42626,1.723156 -10.55598,2.280952 -18.29935,1.98983 -7.79899,-0.293212 -11.38171,-1.049054 -16.53412,-3.488161 -3.84475,-1.82008 -8.93597,-6.234924 -11.09318,-9.619451 -2.35558,-3.69577 -1.88406,-3.88985 3.27757,-1.34908 6.94285,3.417561 9.38156,3.931514 18.6,3.919922 8.89427,-0.01118 13.08629,-0.829242 20.37707,-3.97649 3.91757,-1.691117 11.21913,-6.059221 12.2947,-7.355212 0.44711,-0.538732 -1.25768,-0.634135 -10.50085,-0.587642 -10.03859,0.0505 -11.37681,-0.03928 -14.82569,-0.994695 -8.48302,-2.349966 -15.4762,-7.165705 -19.5646,-13.472849 -1.80021,-2.777162 -2.95091,-5.59054 -2.2866,-5.59054 0.15797,0 1.30064,0.721679 2.53927,1.603732 10.24757,7.297497 23.32925,9.004473 38.67808,5.046945 6.38371,-1.645972 26.34093,-9.641933 26.3574,-10.560231 0.004,-0.195477 -1.239,-0.355414 -2.76113,-0.355414 -6.20407,0 -15.04153,-3.425669 -20.80828,-8.065932 -1.62898,-1.31077 -2.96179,-2.565737 -2.96179,-2.788814 0,-0.223076 1.86593,0.2463 4.1465,1.043061 6.00908,2.099383 10.60783,2.003985 26.18217,-0.543131 6.64624,-1.086965 13.5235,-2.206543 15.2828,-2.487953 1.7593,-0.281409 3.19872,-0.584486 3.19872,-0.673503 0,-0.08902 -1.96469,-1.189305 -4.36597,-2.4450825 -2.91855,-1.5262856 -5.37628,-3.2687066 -7.41343,-5.2557932 -1.67609,-1.6349091 -2.95545,-3.0645538 -2.84302,-3.17698829 0.11243,-0.11243446 2.11567,0.45853909 4.45164,1.26883019 3.6232,1.2568022 5.11752,1.505223 10.17078,1.6908306 5.05883,0.185812 7.41092,-0.011462 16.11211,-1.3513534 16.48936,-2.53918951 25.9677,-2.14002441 36.38249,1.5321915 2.27409,0.8018346 5.20095,1.9918636 6.50413,2.6445084 4.05426,2.0304078 9.52828,5.8446487 10.32598,7.1950477 0.71359,1.208016 0.70151,1.390673 -0.18877,2.854613 -0.93877,1.543695 -0.98618,1.560277 -3.64863,1.276294 -11.93468,-1.27298 -21.5152,-0.824915 -30.89368,1.444845 -17.4637,4.226532 -32.22684,12.809659 -46.22394,26.874095 -10.7637,10.81549 -16.81531,19.586274 -26.92252,39.019663 -2.74227,5.272652 -5.68096,10.603862 -6.53041,11.847134 -4.33671,6.347331 -11.08061,11.587111 -17.53924,13.627391 -3.15996,0.99823 -10.87675,2.27739 -12.48834,2.07011 -0.26064,-0.0335 -1.75338,-0.21092 -3.3172,-0.39421 z"
   id="path225" /><path
   style="fill:#ffffff;stroke-width:0.473885"
   d="m 305.57841,311.31123 c -0.15666,-0.40825 -0.17027,-3.34041 -0.0303,-6.51593 0.30262,-6.86296 1.46289,-11.68029 4.15074,-17.23338 2.43038,-5.02115 2.81631,-5.1429 8.79798,-2.7754 3.29906,1.30574 5.02671,2.31639 6.63986,3.88419 2.36397,2.29751 4.09687,3.18184 5.41516,2.76343 0.98429,-0.3124 2.13675,-2.5701 2.60608,-5.10536 0.51934,-2.80541 1.56523,-3.74007 4.6542,-4.15925 1.48697,-0.20179 3.49672,-0.77486 4.46609,-1.2735 1.87064,-0.96222 11.85698,-11.54121 15.76911,-16.70495 1.2937,-1.70758 2.75381,-4.34734 3.27647,-5.92356 1.05811,-3.19104 3.46254,-14.00598 3.17729,-14.29123 -0.45929,-0.45929 -1.76355,0.53465 -2.84402,2.16735 -1.86786,2.82253 -3.42665,3.22375 -7.80946,2.01012 -2.00551,-0.55533 -9.83058,-2.62428 -17.38905,-4.59765 -16.37385,-4.27489 -20.88688,-5.73296 -24.74684,-7.99522 -3.73001,-2.1861 -7.75142,-6.67865 -9.98211,-11.1516 -1.53096,-3.06984 -1.76022,-3.96483 -1.76022,-6.87134 0,-2.72576 0.25254,-3.85611 1.37004,-6.13202 3.2286,-6.57544 10.9325,-10.71548 19.93965,-10.71548 6.70239,0 15.03537,3.6473 22.28776,9.75523 20.45365,17.22599 26.89825,22.03926 34.86826,26.04204 7.22434,3.62828 9.50022,7.2212 9.61497,15.17916 0.0577,4.00081 -0.0369,4.46059 -1.36431,6.63439 -1.14015,1.86707 -2.51874,3.05851 -6.87134,5.93851 -6.21888,4.11488 -9.52335,7.38942 -19.79683,19.61754 -4.91308,5.84785 -7.23165,9.03026 -8.4587,11.6102 -3.0919,6.50091 -5.346,7.98213 -12.92842,8.49556 -5.54067,0.37517 -6.68476,0.81092 -9.99102,3.80532 -2.64097,2.39187 -3.49367,2.61394 -13.58958,3.53915 -9.87053,0.90455 -9.12591,0.90426 -9.4715,0.004 z"
   id="path227" /><path
   style="fill:#ffffff;stroke-width:0.473885"
   d="m 395.9795,305.60981 c -2.21329,-2.81375 -7.93247,-23.43234 -7.11364,-25.64586 0.28851,-0.77993 1.47431,-1.37241 5.02468,-2.51055 4.66351,-1.49499 5.28469,-1.53593 10.22172,-0.6737 3.39351,0.59267 4.1497,-1.55523 1.77917,-5.05361 -0.77717,-1.14693 -1.41692,-2.33892 -1.42166,-2.64886 -0.005,-0.30995 0.83751,-1.54117 1.87167,-2.73604 3.28804,-3.79903 3.35596,-4.87469 1.40757,-22.29023 -1.21505,-10.86056 -2.26448,-15.25728 -4.88402,-20.46215 -2.66167,-5.28858 -3.33633,-8.18536 -2.90551,-12.47532 0.46496,-4.6299 -0.4137,-4.40279 -3.81376,0.98576 l -2.71354,4.30052 -2.18615,-0.25632 c -1.20239,-0.14098 -3.57227,-0.38525 -5.26641,-0.54282 -9.96633,-0.92693 -23.66115,-2.76047 -25.09898,-3.36038 -4.23499,-1.76699 -4.22888,-1.59613 -0.22275,-6.22748 5.02647,-5.81092 6.95877,-8.94161 9.77257,-15.83339 l 2.45364,-6.00966 1.41883,0.73371 c 1.7055,0.88195 10.45497,3.98456 27.11107,9.61374 14.27913,4.82584 16.462,5.82788 19.01582,8.72917 3.07304,3.49116 3.68322,7.46368 2.27599,14.81771 -1.68705,8.81638 -0.20209,32.1953 2.86454,45.09873 2.05824,8.66043 1.65943,10.37225 -3.76871,16.17657 -2.71765,2.90599 -4.04797,4.82769 -5.51391,7.96509 -1.06265,2.27428 -2.28385,4.84882 -2.71378,5.72121 -0.99355,2.01605 -6.45176,7.11262 -11.29341,10.54515 -4.79035,3.39616 -5.14358,3.51048 -6.30104,2.03901 z"
   id="path229" /></svg>
